<?xml version="1.0" encoding="utf-8"?>
<!-- Designed by Vexels.com - 2016 All Rights Reserved - https://vexels.com/terms-and-conditions/  -->

<svg version="1.1" id="Layer_1" xmlns="http://www.w3.org/2000/svg" xmlns:xlink="http://www.w3.org/1999/xlink" x="0px" y="0px"
	 width="1200px" height="1200px" viewBox="0 0 1200 1200" enable-background="new 0 0 1200 1200" xml:space="preserve">
<g>
	<g>
		<path fill-rule="evenodd" clip-rule="evenodd" fill="#525251" d="M576.123,1113.527c1.329,0.019,3.126,4.848,1.19,9.883
			c-0.485,2.968-40.616,17.572-58.723,23.369c-12.544,6.282-32.672,2.377-40.829-3.195c-2.207-2.431-2.207-7.074-1.525-8.963
			c0.799-2.784,2.509-4.125,3.76-6.191c3.822-2.069,7.644-4.127,11.466-6.192C520.051,1119.995,547.537,1115.764,576.123,1113.527z"
			/>
		<path fill-rule="evenodd" clip-rule="evenodd" fill="#3C3C3B" d="M572.112,1077.43c-0.558,1.445-1.112,2.892-1.665,4.337
			c0.045,0.005,0.024,0.681,0.066,0.683c1.19,6.085,4.326,13.93,5.279,19.816c0.891,5.532,1.265,9.252,0.537,14.81
			c-0.305,1.121-2.039,3.689-6.064,5.068c-6.411,2.204-13.085,2.287-19.719,3.758c-17.626,3.91-31.28,14.604-53.042,12.359
			c3.271-8.455-2.334-12.395-6.028-16.16c12.556-3.971,24.165-9.708,33.718-18.74c7.67-7.251,13.53-17.397,21.112-24.677
			c1.802-1.516,3.611-3.037,5.413-4.548c5.995-1.012,11.995-2.02,17.993-3.037C572.048,1071.851,573.775,1073.632,572.112,1077.43z"
			/>
		<path fill-rule="evenodd" clip-rule="evenodd" fill="#3C3C3B" d="M498.033,1138.037c0.776-4.919,3.581-9.514,7.159-12.693
			c15.829-10.517,33.316-15.044,39.098-41.264c7.811-4.487,22.33-1.119,27.58-6.809c-0.487,1.636-0.977,3.268-1.457,4.9
			c3.195,11.688,6.196,20.311,6.114,32.611c-0.083,0.946-0.166,1.89-0.246,2.833c-3.957,5.023-29.924,13.757-49.894,18.312
			c-9.789,2.235-17.946,2.235-21.723,2.691C502.456,1138.423,500.242,1138.229,498.033,1138.037z"/>
		<path fill-rule="evenodd" clip-rule="evenodd" fill="#8B8B8A" d="M554.855,1082.413l0.009-0.028l0.064-0.182l0.066-0.177
			l0.059-0.18l-0.561-0.201l-0.064,0.18l-0.068,0.177l-0.062,0.18l-0.012,0.028L554.855,1082.413L554.855,1082.413z M499.8,1138.037
			l0.012-0.002l0.019-0.009l0.023-0.019l0.019-0.012l0.026-0.017l0.016-0.009l0.014-0.01l0.023-0.014l0.026-0.009l0.019-0.019
			l0.024-0.007l0.016-0.019l0.019-0.01l0.028-0.014l0.014-0.012l0.021-0.007l0.026-0.024l0.019-0.012l0.021-0.014l0.021-0.01
			l0.021-0.016l0.021-0.014l0.019-0.014l0.024-0.012l0.019-0.017h0.007l-0.324-0.504l-0.009,0.005l-0.021,0.016l-0.021,0.01
			l-0.016,0.014l-0.024,0.016l-0.021,0.012l-0.019,0.009l-0.024,0.014l-0.019,0.014l-0.014,0.007l-0.021,0.014l-0.026,0.017
			l-0.017,0.012l-0.023,0.01l-0.019,0.019l-0.019,0.01l-0.016,0.009l-0.024,0.012l-0.014,0.014l-0.019,0.012l-0.026,0.014
			l-0.016,0.007l-0.017,0.012l-0.021,0.016l-0.021,0.012l-0.007,0.005L499.8,1138.037L499.8,1138.037z M500.821,1137.373h0.012
			l0.024-0.021l0.021-0.01l0.019-0.019l0.023-0.019l0.021-0.012l0.024-0.014l0.019-0.021l0.024-0.012l0.019-0.012l0.026-0.016
			l0.026-0.021l0.016-0.009l0.024-0.017l0.021-0.021l0.021-0.009l0.028-0.021l0.021-0.017l0.016-0.009l0.028-0.021l0.024-0.014
			l0.019-0.017l0.019-0.016l-0.348-0.487l-0.014,0.017l-0.028,0.012l-0.021,0.017l-0.019,0.019l-0.024,0.014l-0.024,0.019
			l-0.019,0.012l-0.026,0.016l-0.021,0.016l-0.019,0.012l-0.026,0.021l-0.021,0.012l-0.021,0.016l-0.021,0.017l-0.021,0.014
			l-0.024,0.014l-0.021,0.014l-0.023,0.017l-0.021,0.019l-0.021,0.014l-0.024,0.017l-0.021,0.009l-0.002,0.002L500.821,1137.373
			L500.821,1137.373z M501.805,1136.678h0.007l0.024-0.016l0.019-0.016l0.024-0.021l0.026-0.014l0.024-0.016l0.026-0.021
			l0.021-0.019l0.026-0.01l0.026-0.021l0.019-0.012l0.026-0.021l0.024-0.014l0.028-0.024l0.024-0.017l0.019-0.01l0.026-0.019
			l0.021-0.021l0.031-0.016l0.026-0.014l0.021-0.024h0.002l-0.345-0.487h-0.002l-0.026,0.016l-0.019,0.019l-0.028,0.019
			l-0.019,0.012l-0.028,0.019l-0.031,0.026l-0.019,0.014l-0.024,0.019l-0.026,0.012l-0.021,0.014l-0.029,0.021l-0.024,0.019
			l-0.024,0.012l-0.028,0.021l-0.021,0.019l-0.024,0.016l-0.021,0.01l-0.024,0.019l-0.028,0.021l-0.019,0.017l-0.007,0.002
			L501.805,1136.678L501.805,1136.678z M502.782,1135.989l0.014-0.002l0.026-0.019l0.021-0.014l0.026-0.016l0.029-0.021l0.026-0.017
			l0.026-0.021l0.026-0.012l0.026-0.024l0.026-0.014l0.026-0.016l0.024-0.021l0.028-0.016l0.028-0.014l0.024-0.019l0.028-0.019
			l0.024-0.014l0.026-0.016l0.026-0.016l0.014-0.007l-0.326-0.504l-0.012,0.002l-0.029,0.021l-0.026,0.016l-0.033,0.021
			l-0.021,0.019l-0.026,0.012l-0.031,0.019l-0.026,0.021l-0.024,0.016l-0.028,0.017l-0.031,0.021l-0.021,0.014l-0.024,0.017
			l-0.033,0.019l-0.026,0.021l-0.024,0.019l-0.026,0.012l-0.028,0.023l-0.024,0.014l-0.014,0.01L502.782,1135.989L502.782,1135.989z
			 M503.778,1135.344l0.005-0.002l0.033-0.019l0.019-0.012l0.031-0.019l0.028-0.017l0.031-0.019l0.028-0.019l0.021-0.012
			l0.033-0.021l0.026-0.016l0.028-0.014l0.031-0.021l0.028-0.014l0.026-0.017l0.031-0.014l0.026-0.021l0.033-0.016l0.024-0.019
			l0.023-0.012l-0.303-0.518l-0.021,0.012l-0.031,0.021l-0.026,0.019l-0.031,0.014l-0.028,0.021l-0.028,0.012l-0.033,0.019
			l-0.026,0.019l-0.031,0.019l-0.031,0.014l-0.026,0.019l-0.031,0.014l-0.033,0.024l-0.023,0.017l-0.026,0.012l-0.031,0.019
			l-0.033,0.021l-0.026,0.016h-0.005L503.778,1135.344L503.778,1135.344z M504.795,1134.75l0.026-0.014l0.033-0.019l0.031-0.01
			l0.033-0.016l0.021-0.014l0.036-0.019l0.033-0.019l0.033-0.019l0.026-0.012l0.031-0.016l0.031-0.016l0.033-0.014l0.031-0.019
			l0.028-0.014l0.031-0.014l0.036-0.019l0.031-0.012l0,0l-0.265-0.542l-0.007,0.007l-0.031,0.012l-0.031,0.014l-0.031,0.019
			l-0.036,0.014l-0.031,0.019l-0.033,0.019l-0.033,0.016l-0.028,0.014l-0.036,0.014l-0.028,0.021l-0.033,0.012l-0.028,0.021
			l-0.035,0.017l-0.033,0.012l-0.026,0.017l-0.033,0.021l-0.031,0.01L504.795,1134.75L504.795,1134.75z M505.854,1134.221h0.002
			l0.038-0.012l0.031-0.019l0.03-0.01l0.036-0.017l0.033-0.012l0.031-0.019l0.031-0.016l0.035-0.014l0.031-0.012l0.083-0.036
			l0.083-0.035l0.076-0.033l-0.236-0.549l-0.076,0.031l-0.085,0.038l-0.078,0.033l-0.035,0.017l-0.028,0.016l-0.038,0.012
			l-0.038,0.014l-0.031,0.017l-0.033,0.014l-0.035,0.014l-0.036,0.016l-0.035,0.014l-0.007,0.007L505.854,1134.221L505.854,1134.221
			z M506.942,1133.752l0.026-0.01l0.088-0.035l0.08-0.033l0.085-0.038l0.083-0.033l0.083-0.038l0.087-0.031l0.021-0.009
			l-0.229-0.553l-0.021,0.009l-0.088,0.035l-0.085,0.033l-0.083,0.04l-0.083,0.028l-0.083,0.038l-0.087,0.038l-0.026,0.01
			L506.942,1133.752L506.942,1133.752z M508.051,1133.296l0.019-0.009l0.087-0.04l0.085-0.033l0.09-0.029l0.085-0.038l0.085-0.04
			l0.09-0.035l0.009-0.002l-0.227-0.558l-0.009,0.005l-0.085,0.04l-0.09,0.033l-0.087,0.038l-0.085,0.033l-0.09,0.038l-0.085,0.038
			l-0.023,0.005L508.051,1133.296L508.051,1133.296z M509.158,1132.846l0.055-0.031l0.092-0.033l0.087-0.038l0.087-0.035
			l0.095-0.038l0.085-0.033l0.057-0.024l-0.232-0.556l-0.05,0.021l-0.088,0.035l-0.09,0.036l-0.09,0.038l-0.092,0.04l-0.087,0.038
			l-0.059,0.021L509.158,1132.846L509.158,1132.846z M510.27,1132.392l0.033-0.016l0.094-0.038l0.088-0.035l0.094-0.036l0.092-0.038
			l0.095-0.04l0.057-0.019l-0.225-0.565l-0.061,0.028l-0.095,0.043l-0.087,0.035l-0.092,0.036l-0.095,0.038l-0.095,0.038
			l-0.031,0.014L510.27,1132.392L510.27,1132.392z M511.379,1131.938l0.04-0.014l0.095-0.042l0.092-0.036l0.094-0.043l0.099-0.035
			l0.095-0.043l0.04-0.014l-0.229-0.553l-0.04,0.017l-0.092,0.038l-0.095,0.043l-0.097,0.035l-0.097,0.04l-0.092,0.038l-0.038,0.014
			L511.379,1131.938L511.379,1131.938z M512.488,1131.479l0.073-0.031l0.102-0.035l0.092-0.04l0.102-0.043l0.092-0.04l0.095-0.035
			l-0.232-0.553l-0.092,0.035l-0.097,0.04l-0.095,0.04l-0.094,0.038l-0.097,0.045l-0.078,0.033L512.488,1131.479L512.488,1131.479z
			 M513.602,1131.023l0.033-0.012l0.1-0.043l0.102-0.043l0.097-0.043l0.095-0.042l0.097-0.043l0.026-0.009l-0.236-0.549l-0.019,0.01
			l-0.099,0.036l-0.102,0.047l-0.092,0.043l-0.102,0.035l-0.097,0.043l-0.038,0.014L513.602,1131.023L513.602,1131.023z
			 M514.706,1130.555l0.017-0.012l0.099-0.04l0.102-0.04l0.099-0.047l0.102-0.04l0.097-0.043l0.036-0.014l-0.239-0.553l-0.035,0.017
			l-0.097,0.042l-0.104,0.045l-0.097,0.04l-0.099,0.047l-0.097,0.038l-0.021,0.005L514.706,1130.555L514.706,1130.555z
			 M515.806,1130.077l0.017-0.009l0.106-0.04l0.097-0.052l0.102-0.038l0.102-0.047l0.104-0.047l0.024-0.01l-0.241-0.546
			l-0.026,0.009l-0.102,0.045l-0.102,0.047l-0.097,0.038l-0.106,0.05l-0.1,0.043l-0.019,0.01L515.806,1130.077L515.806,1130.077z
			 M516.906,1129.59l0.036-0.014l0.106-0.047l0.099-0.05l0.102-0.047l0.104-0.042l0.097-0.047l-0.248-0.546l-0.097,0.047
			l-0.104,0.043l-0.102,0.047l-0.102,0.05l-0.102,0.047l-0.035,0.012L516.906,1129.59L516.906,1129.59z M517.996,1129.091
			l0.076-0.04l0.102-0.043l0.106-0.047l0.104-0.05l0.102-0.05l0.057-0.026l-0.258-0.546l-0.057,0.031l-0.099,0.045l-0.104,0.052
			l-0.104,0.045l-0.104,0.052l-0.076,0.031L517.996,1129.091L517.996,1129.091z M519.084,1128.573l0.021-0.012l0.104-0.04
			l0.104-0.057l0.104-0.047l0.104-0.052l0.102-0.05l0.005-0.007l-0.26-0.535h-0.007l-0.102,0.052l-0.104,0.045l-0.101,0.054
			l-0.104,0.052l-0.107,0.047l-0.019,0.01L519.084,1128.573L519.084,1128.573z M520.167,1128.046l0.08-0.038l0.104-0.059l0.104-0.05
			l0.104-0.05l0.104-0.054l0.04-0.021l-0.267-0.527l-0.042,0.012l-0.104,0.054l-0.099,0.052l-0.107,0.052l-0.104,0.052l-0.08,0.04
			L520.167,1128.046L520.167,1128.046z M521.241,1127.504l0.054-0.031l0.104-0.052l0.104-0.05l0.104-0.059l0.107-0.054l0.062-0.033
			l-0.286-0.532l-0.057,0.031l-0.104,0.059l-0.102,0.05l-0.104,0.052l-0.106,0.059l-0.047,0.026L521.241,1127.504L521.241,1127.504z
			 M522.305,1126.943l0.036-0.021l0.102-0.057l0.106-0.05l0.109-0.066l0.099-0.05l0.076-0.043l-0.286-0.525l-0.073,0.038
			l-0.104,0.057l-0.107,0.054l-0.102,0.057l-0.104,0.059l-0.036,0.014L522.305,1126.943L522.305,1126.943z M523.36,1126.359
			l0.026-0.014l0.107-0.052l0.104-0.064l0.102-0.057l0.107-0.062l0.08-0.045l-0.301-0.523l-0.076,0.05l-0.104,0.054l-0.104,0.066
			l-0.104,0.054l-0.104,0.059l-0.026,0.012L523.36,1126.359L523.36,1126.359z M524.408,1125.768l0.028-0.019l0.104-0.059
			l0.102-0.062l0.106-0.064l0.104-0.064l0.071-0.04l-0.305-0.521l-0.073,0.05l-0.102,0.059l-0.109,0.057l-0.102,0.062l-0.102,0.064
			l-0.026,0.014L524.408,1125.768L524.408,1125.768z M525.441,1125.148l0.038-0.026l0.102-0.062l0.104-0.064l0.107-0.066
			l0.102-0.064l0.059-0.033l-0.317-0.513l-0.057,0.038l-0.104,0.064l-0.106,0.066l-0.102,0.064l-0.102,0.059l-0.038,0.021
			L525.441,1125.148L525.441,1125.148z M526.463,1124.51l0.05-0.038l0.107-0.059l0.104-0.069l0.102-0.069l0.107-0.066l0.038-0.028
			l-0.331-0.497l-0.038,0.016l-0.102,0.071l-0.097,0.066l-0.109,0.071l-0.099,0.059l-0.052,0.038L526.463,1124.51L526.463,1124.51z
			 M527.47,1123.85l0.078-0.05l0.104-0.068l0.107-0.076l0.102-0.069l0.099-0.071l0.009-0.007l-0.336-0.492l-0.012,0.005
			l-0.099,0.066l-0.104,0.076l-0.097,0.069l-0.106,0.066l-0.076,0.052L527.47,1123.85L527.47,1123.85z M528.461,1123.166
			l0.012-0.002l0.104-0.076l0.099-0.071l0.104-0.073l0.101-0.071l0.076-0.054l-0.352-0.49l-0.071,0.057l-0.099,0.069l-0.104,0.073
			l-0.104,0.073l-0.097,0.068l-0.009,0.007L528.461,1123.166L528.461,1123.166z M529.445,1122.462l0.047-0.031l0.102-0.078
			l0.099-0.073l0.104-0.078l0.099-0.071l0.031-0.028l-0.364-0.478l-0.028,0.026l-0.099,0.071l-0.097,0.076l-0.102,0.073
			l-0.104,0.078l-0.045,0.033L529.445,1122.462L529.445,1122.462z M530.407,1121.733l0.09-0.071l0.104-0.076l0.097-0.078
			l0.099-0.083l0.083-0.064l-0.374-0.468l-0.08,0.066l-0.097,0.078l-0.099,0.076l-0.099,0.08l-0.09,0.071L530.407,1121.733
			L530.407,1121.733z M531.349,1120.984l-0.378-0.461l0.047-0.04l0.125-0.106l0.128-0.107l0.13-0.099l0.026-0.028l0.39,0.459
			l-0.033,0.026l-0.128,0.109l-0.133,0.109l-0.128,0.104L531.349,1120.984L531.349,1120.984z M532.276,1120.21l0.026-0.021
			l0.123-0.109l0.13-0.114l0.128-0.109l0.047-0.047l-0.4-0.447l-0.045,0.038l-0.125,0.111l-0.125,0.114l-0.128,0.109l-0.019,0.024
			L532.276,1120.21L532.276,1120.21z M533.182,1119.409l0.002-0.007l0.128-0.111l0.123-0.116l0.123-0.114l0.061-0.059l-0.404-0.44
			l-0.062,0.059l-0.125,0.113l-0.118,0.111l-0.125,0.111l-0.009,0.01L533.182,1119.409L533.182,1119.409z M534.061,1118.588
			l0.114-0.106l0.128-0.123l0.118-0.118l0.071-0.069l-0.414-0.43l-0.073,0.071l-0.123,0.116l-0.121,0.118l-0.114,0.109
			L534.061,1118.588L534.061,1118.588z M534.925,1117.746l0.104-0.102l0.121-0.123l0.121-0.123l0.078-0.078l-0.428-0.421l-0.08,0.08
			l-0.116,0.121l-0.121,0.118l-0.104,0.106L534.925,1117.746L534.925,1117.746z M535.771,1116.883l0.092-0.097l0.116-0.125
			l0.116-0.125l0.085-0.09l-0.437-0.411l-0.083,0.097l-0.116,0.116l-0.118,0.125l-0.09,0.099L535.771,1116.883L535.771,1116.883z
			 M536.59,1116.003l0.087-0.097l0.116-0.125l0.116-0.13l0.087-0.092l-0.452-0.402l-0.085,0.095l-0.111,0.123l-0.111,0.123
			l-0.09,0.102L536.59,1116.003L536.59,1116.003z M537.391,1115.104l0.088-0.099l0.111-0.13l0.111-0.137l0.085-0.092l-0.459-0.388
			l-0.081,0.09l-0.111,0.137l-0.109,0.125l-0.085,0.097L537.391,1115.104L537.391,1115.104z M538.174,1114.184l0.087-0.099
			l0.111-0.135l0.109-0.132l0.078-0.097l-0.464-0.381l-0.076,0.097l-0.109,0.128l-0.109,0.137l-0.09,0.099L538.174,1114.184
			L538.174,1114.184z M538.941,1113.252l0.087-0.116l0.109-0.135l0.109-0.132l0.069-0.09l-0.473-0.367l-0.066,0.08l-0.106,0.135
			l-0.109,0.137l-0.085,0.116L538.941,1113.252L538.941,1113.252z M539.683,1112.306l0.099-0.13l0.104-0.135l0.109-0.142
			l0.055-0.071l-0.48-0.36l-0.052,0.069l-0.104,0.137l-0.107,0.137l-0.097,0.13L539.683,1112.306L539.683,1112.306z
			 M540.414,1111.344l0.002-0.005l0.102-0.142l0.109-0.14l0.102-0.137l0.038-0.059l-0.485-0.352l-0.038,0.054l-0.102,0.142
			l-0.104,0.135l-0.104,0.146l-0.007,0.005L540.414,1111.344L540.414,1111.344z M541.119,1110.374l0.021-0.028l0.099-0.147
			l0.102-0.137l0.104-0.147l0.021-0.031l-0.487-0.345l-0.024,0.026l-0.102,0.147l-0.102,0.139l-0.104,0.144l-0.016,0.026
			L541.119,1110.374L541.119,1110.374z M541.809,1109.39l0.04-0.059l0.1-0.144l0.104-0.147l0.097-0.144l0.002-0.002l-0.499-0.333
			l0,0l-0.097,0.144l-0.099,0.144l-0.097,0.149l-0.043,0.05L541.809,1109.39L541.809,1109.39z M542.486,1108.392l0.062-0.087
			l0.095-0.154l0.097-0.144l0.078-0.121l-0.502-0.329l-0.073,0.118l-0.099,0.149l-0.097,0.146l-0.059,0.087L542.486,1108.392
			L542.486,1108.392z M543.145,1107.382l0.083-0.123l0.094-0.156l0.095-0.151l0.05-0.073l-0.504-0.322l-0.05,0.078l-0.097,0.149
			l-0.097,0.149l-0.078,0.128L543.145,1107.382L543.145,1107.382z M543.786,1106.368l0.014-0.021l0.095-0.154l0.094-0.151
			l0.095-0.156l0.016-0.028l-0.511-0.312l-0.016,0.028l-0.097,0.149l-0.09,0.156l-0.097,0.154l-0.012,0.021L543.786,1106.368
			L543.786,1106.368z M544.415,1105.337l0.04-0.064l0.095-0.156l0.09-0.156l0.083-0.137l-0.513-0.305l-0.087,0.137l-0.087,0.153
			l-0.092,0.151l-0.04,0.069L544.415,1105.337L544.415,1105.337z M545.028,1104.306l0.071-0.128l0.09-0.154l0.092-0.158l0.047-0.078
			l-0.52-0.301l-0.05,0.078l-0.09,0.156l-0.09,0.156l-0.069,0.125L545.028,1104.306L545.028,1104.306z M545.624,1103.26l0.014-0.026
			l0.087-0.159l0.092-0.156l0.09-0.166l0.012-0.016l-0.525-0.296l-0.014,0.021l-0.087,0.163l-0.09,0.156l-0.085,0.156l-0.016,0.021
			L545.624,1103.26L545.624,1103.26z M546.208,1102.208l0.05-0.094l0.092-0.156l0.083-0.158l0.059-0.118l-0.523-0.291l-0.062,0.125
			l-0.09,0.158l-0.085,0.156l-0.047,0.094L546.208,1102.208L546.208,1102.208z M546.783,1101.148l0.081-0.158l0.087-0.166
			l0.085-0.158l0.026-0.047l-0.53-0.274l-0.028,0.04l-0.08,0.163l-0.087,0.165l-0.085,0.161L546.783,1101.148L546.783,1101.148z
			 M547.341,1100.089l0.033-0.076l0.087-0.166l0.083-0.165l0.069-0.13l-0.534-0.272l-0.069,0.13l-0.085,0.163l-0.08,0.166
			l-0.04,0.073L547.341,1100.089L547.341,1100.089z M547.885,1099.01l0.078-0.149l0.078-0.166l0.087-0.168l0.024-0.052l-0.537-0.267
			l-0.026,0.054l-0.08,0.168l-0.083,0.158l-0.08,0.156L547.885,1099.01L547.885,1099.01z M548.419,1097.937l0.033-0.069l0.08-0.173
			l0.08-0.168l0.064-0.132l-0.537-0.26l-0.064,0.135l-0.083,0.168l-0.08,0.166l-0.035,0.066L548.419,1097.937L548.419,1097.937z
			 M548.94,1096.854l0.076-0.161l0.078-0.163l0.083-0.175l0.021-0.04l-0.546-0.262l-0.019,0.047l-0.08,0.168l-0.08,0.173
			l-0.073,0.158L548.94,1096.854L548.94,1096.854z M549.451,1095.768l0.04-0.085l0.078-0.17l0.076-0.17l0.059-0.121l-0.546-0.251
			l-0.059,0.123l-0.078,0.17l-0.076,0.163l-0.04,0.085L549.451,1095.768L549.451,1095.768z M549.95,1094.678l0.002-0.019
			l0.083-0.165l0.076-0.173l0.076-0.17l0.012-0.026l-0.551-0.246l-0.009,0.026l-0.073,0.175l-0.078,0.165l-0.078,0.17l-0.005,0.012
			L549.95,1094.678L549.95,1094.678z M550.441,1093.576l0.047-0.111l0.078-0.173l0.071-0.168l0.04-0.099l-0.546-0.239l-0.043,0.097
			l-0.076,0.173l-0.076,0.166l-0.05,0.111L550.441,1093.576L550.441,1093.576z M550.919,1092.476l0.016-0.043l0.076-0.175
			l0.076-0.17l0.069-0.17l-0.551-0.227l-0.071,0.161l-0.071,0.172l-0.076,0.173l-0.019,0.04L550.919,1092.476L550.919,1092.476z
			 M551.392,1091.369l0.064-0.149l0.073-0.175l0.071-0.177l0.021-0.054l-0.553-0.227l-0.024,0.054l-0.073,0.172l-0.071,0.175
			l-0.066,0.147L551.392,1091.369L551.392,1091.369z M551.849,1090.26l0.038-0.087l0.076-0.177l0.069-0.171l0.052-0.123
			l-0.558-0.227l-0.05,0.121l-0.073,0.177l-0.071,0.17l-0.036,0.09L551.849,1090.26L551.849,1090.26z M552.303,1089.146l0.012-0.021
			l0.071-0.177l0.069-0.172l0.071-0.18v-0.005l-0.556-0.222l-0.002,0.005l-0.071,0.177l-0.071,0.173l-0.068,0.177l-0.009,0.026
			L552.303,1089.146L552.303,1089.146z M552.75,1088.032l0.052-0.142l0.068-0.168l0.073-0.18l0.024-0.073l-0.558-0.215l-0.026,0.069
			l-0.069,0.173l-0.069,0.175l-0.054,0.142L552.75,1088.032L552.75,1088.032z M553.185,1086.913l0.026-0.078l0.071-0.177l0.071-0.18
			l0.045-0.125l-0.561-0.215l-0.045,0.125l-0.066,0.175l-0.071,0.177l-0.029,0.078L553.185,1086.913L553.185,1086.913z
			 M553.613,1085.788l0.007-0.019l0.066-0.177l0.066-0.175l0.068-0.175v-0.012l-0.558-0.21v0.005l-0.071,0.178l-0.066,0.177
			l-0.066,0.177l-0.007,0.019L553.613,1085.788L553.613,1085.788z M554.034,1084.667l0.05-0.14l0.069-0.182l0.066-0.177l0.023-0.062
			l-0.563-0.208l-0.026,0.064l-0.064,0.177l-0.066,0.18l-0.05,0.14L554.034,1084.667L554.034,1084.667z M554.452,1083.536
			l0.026-0.08l0.066-0.182l0.062-0.177l0.047-0.123l-0.565-0.203l-0.045,0.123l-0.064,0.177l-0.064,0.177l-0.033,0.09
			L554.452,1083.536z"/>
		<path fill-rule="evenodd" clip-rule="evenodd" fill="#8B8B8A" d="M557.378,1084.39l0.01-0.028l0.064-0.177l0.066-0.175l0.066-0.18
			l-0.56-0.206l-0.066,0.175l-0.069,0.173l-0.061,0.184l-0.012,0.024L557.378,1084.39L557.378,1084.39z M501.597,1139.291
			l0.01-0.007l0.021-0.009l0.021-0.01l0.017-0.012l0.031-0.014l0.021-0.012l0.01-0.012l0.028-0.014l0.026-0.019l0.012-0.002
			l0.021-0.019l0.028-0.012l0.016-0.009l0.019-0.014l0.023-0.019l0.014-0.002l0.026-0.019l0.021-0.012l0.024-0.014l0.023-0.012
			l0.017-0.016l0.021-0.009l0.026-0.012l0.016-0.019l0.017-0.012l0.019-0.009l-0.326-0.504l-0.007,0.005l-0.026,0.019l-0.017,0.014
			l-0.016,0.012l-0.021,0.01l-0.028,0.012l-0.017,0.012l-0.019,0.016l-0.016,0.009l-0.021,0.012l-0.026,0.019l-0.019,0.007
			l-0.021,0.012l-0.019,0.019l-0.014,0.007l-0.021,0.012l-0.026,0.014l-0.017,0.012l-0.016,0.009l-0.024,0.012l-0.021,0.014
			l-0.016,0.01l-0.021,0.012l-0.016,0.014l-0.021,0.007l-0.009,0.005L501.597,1139.291L501.597,1139.291z M502.628,1138.638h0.007
			l0.021-0.014l0.024-0.019l0.021-0.014l0.021-0.012l0.024-0.017l0.023-0.014l0.024-0.019l0.026-0.019l0.017-0.019l0.021-0.005
			l0.023-0.014l0.021-0.019l0.026-0.019l0.021-0.016l0.019-0.012l0.028-0.019l0.023-0.01l0.019-0.012l0.026-0.021l0.021-0.016
			l0.021-0.017l0.021-0.012l-0.343-0.494l-0.019,0.014l-0.023,0.019l-0.019,0.01l-0.021,0.017l-0.026,0.016l-0.026,0.014
			l-0.021,0.014l-0.019,0.014l-0.026,0.019l-0.019,0.019l-0.023,0.009l-0.021,0.016l-0.024,0.014l-0.026,0.024l-0.017,0.009
			l-0.023,0.014l-0.021,0.017l-0.021,0.012l-0.024,0.017l-0.021,0.019l-0.021,0.012l-0.021,0.01l-0.005,0.007L502.628,1138.638
			L502.628,1138.638z M503.622,1137.962l0.002-0.005l0.021-0.019l0.024-0.014l0.024-0.019l0.028-0.014l0.024-0.019l0.023-0.014
			l0.028-0.016l0.019-0.019l0.021-0.014l0.026-0.016l0.026-0.019l0.026-0.017l0.023-0.021l0.024-0.014l0.028-0.014l0.019-0.019
			l0.026-0.021l0.023-0.01l0.024-0.016l0.026-0.017l0.007-0.005l-0.343-0.492h0.002l-0.026,0.014l-0.028,0.021l-0.021,0.014
			l-0.021,0.016l-0.033,0.019l-0.026,0.014l-0.021,0.016l-0.024,0.021l-0.024,0.019l-0.026,0.012l-0.026,0.016l-0.021,0.017
			l-0.026,0.019l-0.021,0.012l-0.026,0.021l-0.028,0.019l-0.023,0.014l-0.021,0.01l-0.026,0.024l-0.023,0.016l-0.002,0.005
			L503.622,1137.962L503.622,1137.962z M504.608,1137.288l0.009-0.01l0.026-0.014l0.026-0.019l0.028-0.019l0.026-0.014l0.021-0.016
			l0.026-0.014l0.028-0.019l0.028-0.021l0.021-0.019l0.031-0.014l0.026-0.021l0.019-0.012l0.031-0.016l0.031-0.021l0.028-0.017
			l0.023-0.014l0.026-0.019l0.028-0.014l0.009-0.005l-0.317-0.511l-0.017,0.002l-0.026,0.026l-0.024,0.009l-0.033,0.021
			l-0.023,0.021l-0.026,0.014l-0.028,0.019l-0.035,0.021l-0.021,0.014l-0.021,0.012l-0.036,0.024l-0.023,0.019l-0.019,0.01
			l-0.031,0.019l-0.031,0.026l-0.026,0.012l-0.026,0.017l-0.026,0.021l-0.026,0.014l-0.012,0.005L504.608,1137.288L504.608,1137.288
			z M505.608,1136.654l0.005-0.007l0.031-0.019l0.021-0.014l0.031-0.014l0.031-0.021l0.028-0.014l0.026-0.012l0.028-0.019
			l0.028-0.021l0.031-0.014l0.031-0.016l0.024-0.019l0.033-0.017l0.026-0.016l0.028-0.017l0.026-0.016l0.038-0.019l0.021-0.009
			l0.019-0.009l-0.291-0.53l-0.019,0.012l-0.031,0.026l-0.031,0.012l-0.031,0.014l-0.033,0.019l-0.028,0.019l-0.028,0.012
			l-0.026,0.021l-0.031,0.016l-0.028,0.014l-0.026,0.021l-0.036,0.014l-0.033,0.021l-0.028,0.014l-0.024,0.014l-0.031,0.024
			l-0.031,0.014l-0.026,0.016l-0.009,0.007L505.608,1136.654L505.608,1136.654z M506.635,1136.072l0.026-0.016l0.033-0.014
			l0.031-0.016l0.029-0.016l0.028-0.01l0.033-0.019l0.031-0.021l0.033-0.014l0.031-0.016l0.028-0.014l0.031-0.014l0.033-0.016
			l0.033-0.012l0.028-0.016l0.028-0.019l0.038-0.012l0.031-0.017l0,0l-0.26-0.546l-0.007,0.005l-0.029,0.019l-0.03,0.014
			l-0.031,0.016l-0.038,0.014l-0.031,0.014l-0.031,0.021l-0.033,0.017l-0.031,0.014l-0.036,0.014l-0.033,0.019l-0.026,0.012
			l-0.028,0.019l-0.033,0.016l-0.035,0.017l-0.036,0.016l-0.026,0.016l-0.028,0.009L506.635,1136.072L506.635,1136.072z
			 M507.694,1135.562l0.009-0.007l0.033-0.014l0.033-0.016l0.033-0.009l0.033-0.012l0.038-0.019l0.029-0.014l0.033-0.014
			l0.036-0.014l0.028-0.012l0.085-0.038l0.08-0.026l0.078-0.04l-0.227-0.551l-0.078,0.031l-0.085,0.033l-0.083,0.038l-0.033,0.014
			l-0.033,0.017l-0.033,0.009l-0.038,0.019l-0.033,0.01l-0.031,0.016l-0.038,0.014l-0.033,0.016l-0.036,0.019h-0.005
			L507.694,1135.562L507.694,1135.562z M508.796,1135.103l0.026-0.012l0.08-0.033l0.088-0.031l0.083-0.036l0.085-0.035l0.083-0.031
			l0.087-0.036l0.024-0.009l-0.225-0.56l-0.023,0.012l-0.083,0.035l-0.088,0.033l-0.083,0.035l-0.083,0.029l-0.09,0.038
			l-0.083,0.033l-0.026,0.012L508.796,1135.103L508.796,1135.103z M509.905,1134.66l0.024-0.012l0.085-0.038l0.085-0.031l0.09-0.031
			l0.087-0.038l0.088-0.036l0.09-0.033l0.007-0.007l-0.218-0.558l-0.012,0.007l-0.088,0.031l-0.085,0.04l-0.09,0.031l-0.088,0.04
			l-0.09,0.031l-0.083,0.035l-0.024,0.007L509.905,1134.66L509.905,1134.66z M511.022,1134.218l0.054-0.021l0.09-0.038l0.09-0.033
			l0.09-0.038l0.092-0.031l0.092-0.038l0.05-0.019l-0.217-0.558l-0.052,0.019l-0.092,0.035l-0.087,0.038l-0.092,0.031l-0.09,0.035
			l-0.09,0.038l-0.055,0.021L511.022,1134.218L511.022,1134.218z M512.136,1133.785l0.036-0.019l0.09-0.031l0.094-0.038l0.097-0.038
			l0.092-0.038l0.085-0.035l0.064-0.029l-0.22-0.551l-0.057,0.021l-0.094,0.038l-0.09,0.038l-0.094,0.036l-0.092,0.033l-0.097,0.033
			l-0.033,0.019L512.136,1133.785L512.136,1133.785z M513.257,1133.348l0.04-0.016l0.095-0.04l0.092-0.036l0.095-0.042l0.097-0.033
			l0.097-0.038l0.043-0.019l-0.225-0.551l-0.043,0.012l-0.09,0.035l-0.099,0.04l-0.095,0.036l-0.094,0.04l-0.095,0.033l-0.043,0.019
			L513.257,1133.348L513.257,1133.348z M514.371,1132.903l0.076-0.031l0.097-0.033l0.097-0.043l0.094-0.04l0.1-0.04l0.094-0.038
			l-0.224-0.554l-0.095,0.038l-0.095,0.04l-0.097,0.031l-0.099,0.045l-0.097,0.038l-0.071,0.031L514.371,1132.903L514.371,1132.903z
			 M515.482,1132.461l0.04-0.019l0.095-0.038l0.099-0.04l0.102-0.04l0.097-0.04l0.099-0.04l0.026-0.009l-0.225-0.554l-0.021,0.005
			l-0.102,0.038l-0.102,0.04l-0.1,0.047l-0.097,0.035l-0.099,0.04l-0.038,0.014L515.482,1132.461L515.482,1132.461z M516.594,1132
			l0.024-0.002l0.097-0.045l0.099-0.04l0.102-0.043l0.102-0.04l0.099-0.04l0.033-0.017l-0.227-0.553l-0.038,0.017l-0.097,0.038
			l-0.099,0.045l-0.102,0.038l-0.099,0.042l-0.102,0.043l-0.019,0.007L516.594,1132L516.594,1132z M517.705,1131.543l0.021-0.01
			l0.099-0.045l0.102-0.042l0.104-0.045l0.099-0.038l0.099-0.045l0.031-0.012l-0.239-0.549l-0.024,0.009l-0.102,0.04l-0.102,0.043
			l-0.102,0.043l-0.097,0.045l-0.104,0.038l-0.019,0.012L517.705,1131.543L517.705,1131.543z M518.81,1131.07l0.038-0.024
			l0.106-0.038l0.1-0.05l0.101-0.04l0.107-0.047l0.102-0.047l-0.244-0.548l-0.099,0.045l-0.104,0.05l-0.099,0.043l-0.104,0.045
			l-0.102,0.045l-0.042,0.019L518.81,1131.07L518.81,1131.07z M519.909,1130.585l0.073-0.038l0.107-0.045l0.104-0.045l0.102-0.052
			l0.102-0.045l0.062-0.028l-0.253-0.542l-0.054,0.028l-0.102,0.038l-0.104,0.05l-0.106,0.047l-0.102,0.05l-0.073,0.031
			L519.909,1130.585L519.909,1130.585z M521.002,1130.084l0.021-0.012l0.104-0.05l0.109-0.047l0.102-0.05l0.102-0.05l0.106-0.045
			l0,0l-0.251-0.544h-0.002l-0.107,0.05l-0.109,0.047l-0.097,0.047l-0.104,0.05l-0.104,0.047l-0.021,0.009L521.002,1130.084
			L521.002,1130.084z M522.09,1129.564l0.083-0.035l0.109-0.052l0.104-0.052l0.104-0.05l0.106-0.052l0.036-0.016l-0.262-0.537
			l-0.036,0.016l-0.106,0.05l-0.106,0.052l-0.102,0.05l-0.102,0.05l-0.088,0.04L522.09,1129.564L522.09,1129.564z M523.168,1129.041
			l0.057-0.031l0.109-0.052l0.102-0.054l0.107-0.05l0.104-0.059l0.062-0.028l-0.272-0.534l-0.064,0.028l-0.099,0.057l-0.106,0.05
			l-0.107,0.059l-0.099,0.047l-0.057,0.026L523.168,1129.041L523.168,1129.041z M524.242,1128.49l0.038-0.019l0.104-0.055
			l0.104-0.057l0.106-0.052l0.104-0.057l0.078-0.038l-0.281-0.532l-0.076,0.038l-0.104,0.057l-0.104,0.057l-0.104,0.057
			l-0.104,0.052l-0.036,0.016L524.242,1128.49L524.242,1128.49z M525.304,1127.927l0.026-0.014l0.107-0.062l0.109-0.054l0.107-0.062
			l0.102-0.054l0.083-0.05l-0.288-0.521l-0.083,0.045l-0.104,0.057l-0.101,0.055l-0.107,0.062l-0.104,0.057l-0.026,0.014
			L525.304,1127.927L525.304,1127.927z M526.356,1127.345l0.031-0.019l0.109-0.059l0.102-0.059l0.111-0.064l0.102-0.059l0.073-0.04
			l-0.301-0.518l-0.076,0.04l-0.104,0.059l-0.104,0.064l-0.102,0.055l-0.104,0.061l-0.028,0.019L526.356,1127.345L526.356,1127.345z
			 M527.402,1126.742l0.036-0.026l0.106-0.064l0.107-0.062l0.104-0.066l0.104-0.059l0.062-0.035l-0.31-0.513l-0.059,0.038
			l-0.104,0.059l-0.104,0.064l-0.104,0.064l-0.104,0.062l-0.038,0.019L527.402,1126.742L527.402,1126.742z M528.435,1126.116
			l0.052-0.038l0.104-0.066l0.104-0.059l0.106-0.066l0.104-0.069l0.036-0.026l-0.317-0.504l-0.043,0.021l-0.104,0.066l-0.1,0.064
			l-0.104,0.071l-0.104,0.061l-0.052,0.033L528.435,1126.116L528.435,1126.116z M529.452,1125.468l0.078-0.052l0.104-0.066
			l0.104-0.068l0.102-0.069l0.106-0.073l0.007-0.002l-0.331-0.499l-0.009,0.01l-0.102,0.064l-0.102,0.068l-0.104,0.069l-0.102,0.066
			l-0.078,0.052L529.452,1125.468L529.452,1125.468z M530.455,1124.801l0.012-0.007l0.097-0.068l0.106-0.073l0.104-0.073
			l0.097-0.071l0.08-0.052l-0.348-0.492l-0.071,0.052l-0.104,0.073l-0.104,0.071l-0.097,0.069l-0.106,0.073h-0.005L530.455,1124.801
			L530.455,1124.801z M531.441,1124.105l0.047-0.031l0.102-0.078l0.102-0.071l0.102-0.078l0.099-0.068l0.038-0.029l-0.355-0.482
			l-0.036,0.028l-0.097,0.071l-0.102,0.073l-0.102,0.073l-0.099,0.071l-0.047,0.035L531.441,1124.105L531.441,1124.105z
			 M532.413,1123.386l0.092-0.061l0.104-0.076l0.097-0.078l0.104-0.085l0.08-0.057l-0.364-0.473l-0.083,0.057l-0.104,0.08
			l-0.097,0.073l-0.104,0.076l-0.088,0.073L532.413,1123.386L532.413,1123.386z M533.369,1122.656l-0.374-0.473l0.045-0.031
			l0.128-0.104l0.13-0.106l0.13-0.102l0.028-0.028l0.386,0.461l-0.038,0.026l-0.128,0.107l-0.137,0.109l-0.128,0.104
			L533.369,1122.656L533.369,1122.656z M534.3,1121.889l0.026-0.021l0.13-0.104l0.128-0.114l0.128-0.111l0.05-0.035l-0.393-0.464
			l-0.045,0.047l-0.13,0.106l-0.132,0.113l-0.121,0.107l-0.021,0.019L534.3,1121.889L534.3,1121.889z M535.216,1121.099h0.009
			l0.123-0.116l0.125-0.111l0.128-0.111l0.064-0.057l-0.402-0.452l-0.059,0.057l-0.125,0.114l-0.125,0.118l-0.123,0.104
			l-0.014,0.012L535.216,1121.099L535.216,1121.099z M536.107,1120.293l0.121-0.109l0.123-0.116l0.123-0.121l0.076-0.068
			l-0.416-0.435l-0.069,0.073l-0.125,0.111l-0.121,0.121l-0.121,0.106L536.107,1120.293L536.107,1120.293z M536.982,1119.463
			l0.102-0.104l0.125-0.116l0.121-0.123l0.083-0.078l-0.423-0.426l-0.08,0.08l-0.118,0.121l-0.123,0.119l-0.102,0.101
			L536.982,1119.463L536.982,1119.463z M537.838,1118.612l0.092-0.099l0.121-0.125l0.121-0.121l0.087-0.09l-0.433-0.416
			l-0.087,0.087l-0.123,0.121l-0.114,0.128l-0.092,0.097L537.838,1118.612L537.838,1118.612z M538.669,1117.741l0.092-0.095
			l0.118-0.128l0.116-0.125l0.085-0.094l-0.445-0.404l-0.083,0.092l-0.116,0.121l-0.116,0.121l-0.087,0.104L538.669,1117.741
			L538.669,1117.741z M539.487,1116.852l0.08-0.095l0.118-0.128l0.116-0.132l0.085-0.094l-0.452-0.397l-0.088,0.092l-0.109,0.13
			l-0.111,0.128l-0.09,0.097L539.487,1116.852L539.487,1116.852z M540.279,1115.944l0.09-0.104l0.111-0.128l0.114-0.132l0.078-0.095
			l-0.464-0.385l-0.071,0.092l-0.116,0.125l-0.111,0.137l-0.085,0.104L540.279,1115.944L540.279,1115.944z M541.055,1115.019
			l0.095-0.109l0.111-0.132l0.111-0.137l0.064-0.08l-0.466-0.381l-0.069,0.085l-0.109,0.137l-0.106,0.125l-0.092,0.114
			L541.055,1115.019L541.055,1115.019z M541.816,1114.085l0.102-0.121l0.104-0.14l0.104-0.139l0.057-0.073l-0.471-0.364
			l-0.055,0.066l-0.109,0.14l-0.109,0.135l-0.099,0.128L541.816,1114.085L541.816,1114.085z M542.554,1113.134l0.002-0.007
			l0.107-0.137l0.106-0.142l0.104-0.137l0.043-0.057l-0.48-0.359l-0.04,0.059l-0.104,0.135l-0.109,0.142l-0.102,0.14l-0.005,0.002
			L542.554,1113.134L542.554,1113.134z M543.276,1112.169l0.021-0.026l0.104-0.144l0.102-0.14l0.104-0.144l0.024-0.028l-0.492-0.348
			l-0.019,0.024l-0.102,0.142l-0.104,0.142l-0.102,0.146l-0.019,0.021L543.276,1112.169L543.276,1112.169z M543.98,1111.195
			l0.038-0.054l0.1-0.142l0.102-0.146l0.104-0.151l0,0l-0.487-0.336h-0.002l-0.107,0.144l-0.099,0.142l-0.099,0.14l-0.04,0.057
			L543.98,1111.195L543.98,1111.195z M544.669,1110.206l0.059-0.085l0.099-0.146l0.102-0.147l0.076-0.121l-0.494-0.331l-0.083,0.109
			l-0.095,0.154l-0.102,0.142l-0.057,0.09L544.669,1110.206L544.669,1110.206z M545.34,1109.211l0.083-0.132l0.099-0.144
			l0.095-0.149l0.052-0.085l-0.501-0.322l-0.052,0.08l-0.099,0.142l-0.092,0.149l-0.088,0.132L545.34,1109.211L545.34,1109.211z
			 M545.995,1108.196l0.012-0.014l0.1-0.151l0.094-0.154l0.099-0.154l0.019-0.031l-0.508-0.319l-0.021,0.031l-0.095,0.149
			l-0.094,0.151l-0.099,0.151l-0.01,0.021L545.995,1108.196L545.995,1108.196z M546.634,1107.179l0.043-0.066l0.095-0.156
			l0.094-0.154l0.085-0.132l-0.511-0.312l-0.083,0.135l-0.095,0.153l-0.095,0.147l-0.04,0.076L546.634,1107.179L546.634,1107.179z
			 M547.258,1106.155l0.078-0.125l0.09-0.151l0.094-0.163l0.045-0.076l-0.513-0.307l-0.047,0.08l-0.092,0.154l-0.095,0.154
			l-0.071,0.128L547.258,1106.155L547.258,1106.155z M547.873,1105.117l0.012-0.028l0.095-0.154l0.092-0.156l0.09-0.163l0.014-0.019
			l-0.52-0.301l-0.012,0.026l-0.09,0.154l-0.092,0.159l-0.09,0.154l-0.019,0.026L547.873,1105.117L547.873,1105.117z
			 M548.471,1104.074l0.05-0.092l0.09-0.156l0.092-0.158l0.059-0.121l-0.523-0.286l-0.062,0.116l-0.09,0.151l-0.092,0.163
			l-0.043,0.095L548.471,1104.074L548.471,1104.074z M549.058,1103.024l0.085-0.161l0.087-0.161l0.087-0.161l0.028-0.045
			l-0.53-0.284l-0.024,0.04l-0.087,0.163l-0.09,0.163l-0.083,0.159L549.058,1103.024L549.058,1103.024z M549.628,1101.962
			l0.038-0.071l0.085-0.161l0.088-0.166l0.073-0.13l-0.532-0.281l-0.068,0.135l-0.087,0.161l-0.085,0.161l-0.045,0.078
			L549.628,1101.962L549.628,1101.962z M550.186,1100.902l0.078-0.154l0.09-0.163l0.08-0.168l0.028-0.05l-0.532-0.27l-0.029,0.052
			l-0.087,0.161l-0.083,0.161l-0.076,0.156L550.186,1100.902L550.186,1100.902z M550.735,1099.829l0.035-0.071l0.088-0.163
			l0.078-0.168l0.068-0.135l-0.537-0.267l-0.069,0.137l-0.083,0.163l-0.078,0.166l-0.038,0.076L550.735,1099.829L550.735,1099.829z
			 M551.272,1098.757l0.078-0.161l0.083-0.165l0.08-0.166l0.023-0.05l-0.542-0.26l-0.019,0.04l-0.083,0.168l-0.085,0.17
			l-0.073,0.161L551.272,1098.757L551.272,1098.757z M551.794,1097.677l0.043-0.09l0.083-0.161l0.076-0.175l0.059-0.116
			l-0.537-0.256l-0.062,0.119l-0.08,0.168l-0.08,0.168l-0.04,0.083L551.794,1097.677L551.794,1097.677z M552.312,1096.589
			l0.002-0.01l0.083-0.175l0.078-0.163l0.076-0.175l0.012-0.021l-0.544-0.253l-0.012,0.026l-0.076,0.17l-0.08,0.165l-0.078,0.173
			l-0.005,0.012L552.312,1096.589L552.312,1096.589z M552.816,1095.496l0.05-0.109l0.078-0.173l0.078-0.168l0.043-0.095
			l-0.546-0.246l-0.047,0.092l-0.073,0.17l-0.078,0.173l-0.05,0.109L552.816,1095.496L552.816,1095.496z M553.31,1094.406
			l0.019-0.047l0.073-0.17l0.08-0.17l0.069-0.166l-0.546-0.241l-0.071,0.168l-0.078,0.165l-0.078,0.173l-0.014,0.04L553.31,1094.406
			L553.31,1094.406z M553.793,1093.304l0.066-0.151l0.076-0.17l0.073-0.173l0.026-0.052l-0.553-0.241l-0.024,0.059l-0.073,0.165
			l-0.076,0.175l-0.064,0.144L553.793,1093.304L553.793,1093.304z M554.268,1092.204l0.04-0.088l0.069-0.173l0.08-0.177l0.047-0.116
			l-0.553-0.239l-0.05,0.121l-0.076,0.177l-0.073,0.165l-0.036,0.09L554.268,1092.204L554.268,1092.204z M554.736,1091.097
			l0.009-0.028l0.073-0.173l0.073-0.173l0.071-0.177l0.005-0.005l-0.556-0.229l-0.005,0.002l-0.069,0.18l-0.078,0.168l-0.069,0.177
			l-0.009,0.026L554.736,1091.097L554.736,1091.097z M555.195,1089.986l0.054-0.14l0.071-0.177l0.073-0.175l0.028-0.062
			l-0.556-0.227l-0.028,0.068l-0.069,0.175l-0.071,0.17l-0.059,0.14L555.195,1089.986L555.195,1089.986z M555.644,1088.874
			l0.031-0.076l0.071-0.185l0.071-0.177l0.052-0.123l-0.556-0.222l-0.052,0.125l-0.071,0.177l-0.069,0.175l-0.031,0.078
			L555.644,1088.874L555.644,1088.874z M556.091,1087.755l0.002-0.024l0.073-0.175l0.069-0.175l0.073-0.177v-0.01l-0.558-0.215
			l-0.005,0.005l-0.071,0.177l-0.071,0.175l-0.064,0.18l-0.005,0.019L556.091,1087.755L556.091,1087.755z M556.527,1086.634
			l0.054-0.137l0.064-0.182l0.069-0.177l0.026-0.066l-0.558-0.206l-0.026,0.059l-0.069,0.177l-0.066,0.18l-0.057,0.142
			L556.527,1086.634L556.527,1086.634z M556.957,1085.516l0.026-0.083l0.073-0.18l0.062-0.18l0.05-0.121l-0.565-0.213l-0.04,0.128
			l-0.069,0.173l-0.071,0.177l-0.028,0.087L556.957,1085.516z"/>
	</g>
	<g>
		<path fill-rule="evenodd" clip-rule="evenodd" fill="#525251" d="M634.907,1113.527c1.324,0.019,3.127,4.848,1.187,9.883
			c-0.487,2.968-40.614,17.572-58.723,23.369c-12.542,6.282-32.672,2.377-40.829-3.195c-2.204-2.431-2.204-7.074-1.523-8.963
			c0.799-2.784,2.505-4.125,3.76-6.191c3.819-2.069,7.644-4.127,11.465-6.192C578.833,1119.995,606.319,1115.764,634.907,1113.527z"
			/>
		<path fill-rule="evenodd" clip-rule="evenodd" fill="#3C3C3B" d="M630.896,1077.43c-0.558,1.445-1.112,2.892-1.667,4.337
			c0.045,0.005,0.024,0.681,0.068,0.683c1.187,6.085,4.323,13.93,5.276,19.816c0.894,5.532,1.268,9.252,0.537,14.81
			c-0.305,1.121-2.039,3.689-6.061,5.068c-6.414,2.204-13.088,2.287-19.722,3.758c-17.626,3.91-31.279,14.604-53.042,12.359
			c3.268-8.455-2.337-12.395-6.031-16.16c12.558-3.971,24.17-9.708,33.72-18.74c7.667-7.251,13.53-17.397,21.115-24.677
			c1.802-1.516,3.607-3.037,5.411-4.548c5.995-1.012,11.995-2.02,17.995-3.037C630.832,1071.851,632.559,1073.632,630.896,1077.43z"
			/>
		<path fill-rule="evenodd" clip-rule="evenodd" fill="#3C3C3B" d="M556.818,1138.037c0.773-4.919,3.581-9.514,7.154-12.693
			c15.831-10.517,33.318-15.044,39.103-41.264c7.812-4.487,22.33-1.119,27.581-6.809c-0.487,1.636-0.977,3.268-1.459,4.9
			c3.197,11.688,6.196,20.311,6.113,32.611c-0.083,0.946-0.163,1.89-0.248,2.833c-3.954,5.023-29.924,13.757-49.892,18.312
			c-9.789,2.235-17.945,2.235-21.725,2.691C561.238,1138.423,559.024,1138.229,556.818,1138.037z"/>
		<path fill-rule="evenodd" clip-rule="evenodd" fill="#8B8B8A" d="M613.637,1082.413l0.012-0.028l0.064-0.182l0.064-0.177
			l0.062-0.18l-0.563-0.201l-0.062,0.18l-0.071,0.177l-0.061,0.18l-0.012,0.028L613.637,1082.413L613.637,1082.413z
			 M558.579,1138.037l0.012-0.002l0.024-0.009l0.021-0.019l0.021-0.012l0.026-0.017l0.012-0.009l0.019-0.01l0.024-0.014l0.023-0.009
			l0.021-0.019l0.019-0.007l0.019-0.019l0.021-0.01l0.026-0.014l0.014-0.012l0.021-0.007l0.026-0.024l0.019-0.012l0.024-0.014
			l0.019-0.01l0.019-0.016l0.026-0.014l0.017-0.014l0.023-0.012l0.021-0.017h0.007l-0.324-0.504l-0.012,0.005l-0.021,0.016
			l-0.019,0.01l-0.021,0.014l-0.024,0.016l-0.016,0.012l-0.021,0.009l-0.024,0.014l-0.016,0.014l-0.019,0.007l-0.019,0.014
			l-0.024,0.017l-0.019,0.012l-0.024,0.01l-0.019,0.019l-0.019,0.01l-0.016,0.009l-0.021,0.012l-0.014,0.014l-0.021,0.012
			l-0.026,0.014l-0.017,0.007l-0.016,0.012l-0.019,0.016l-0.021,0.012l-0.01,0.005L558.579,1138.037L558.579,1138.037z
			 M559.604,1137.373h0.012l0.023-0.021l0.021-0.01l0.019-0.019l0.026-0.019l0.019-0.012l0.024-0.014l0.019-0.021l0.023-0.012
			l0.019-0.012l0.028-0.016l0.023-0.021l0.014-0.009l0.028-0.017l0.019-0.021l0.021-0.009l0.031-0.021l0.016-0.017l0.021-0.009
			l0.026-0.021l0.023-0.014l0.021-0.017l0.014-0.016l-0.345-0.487l-0.014,0.017l-0.026,0.012l-0.024,0.017l-0.021,0.019
			l-0.019,0.014l-0.026,0.019l-0.019,0.012l-0.026,0.016l-0.024,0.016l-0.014,0.012l-0.028,0.021l-0.021,0.012l-0.019,0.016
			l-0.026,0.017l-0.019,0.014l-0.021,0.014l-0.024,0.014l-0.024,0.017l-0.021,0.019l-0.021,0.014l-0.021,0.017l-0.021,0.009
			l-0.002,0.002L559.604,1137.373L559.604,1137.373z M560.59,1136.678h0.005l0.023-0.016l0.019-0.016l0.023-0.021l0.028-0.014
			l0.021-0.016l0.026-0.021l0.021-0.019l0.026-0.01l0.026-0.021l0.021-0.012l0.021-0.021l0.028-0.014l0.026-0.024l0.026-0.017
			l0.017-0.01l0.023-0.019l0.026-0.021l0.028-0.016l0.026-0.014l0.021-0.024h0.002l-0.345-0.487h-0.002l-0.023,0.016l-0.021,0.019
			l-0.028,0.019l-0.019,0.012l-0.029,0.019l-0.028,0.026l-0.021,0.014l-0.026,0.019l-0.021,0.012l-0.024,0.014l-0.026,0.021
			l-0.026,0.019l-0.026,0.012l-0.024,0.021l-0.023,0.019l-0.024,0.016l-0.021,0.01l-0.024,0.019l-0.026,0.021l-0.021,0.017
			l-0.007,0.002L560.59,1136.678L560.59,1136.678z M561.566,1135.989l0.012-0.002l0.024-0.019l0.026-0.014l0.024-0.016l0.031-0.021
			l0.024-0.017l0.023-0.021l0.031-0.012l0.024-0.024l0.028-0.014l0.021-0.016l0.028-0.021l0.026-0.016l0.028-0.014l0.023-0.019
			l0.029-0.019l0.026-0.014l0.024-0.016l0.026-0.016l0.016-0.007l-0.329-0.504l-0.014,0.002l-0.023,0.021l-0.028,0.016l-0.031,0.021
			l-0.026,0.019l-0.023,0.012l-0.029,0.019l-0.028,0.021l-0.024,0.016l-0.028,0.017l-0.028,0.021l-0.024,0.014l-0.026,0.017
			l-0.028,0.019l-0.028,0.021l-0.021,0.019l-0.031,0.012l-0.024,0.023l-0.026,0.014l-0.014,0.01L561.566,1135.989L561.566,1135.989z
			 M562.562,1135.344l0.002-0.002l0.033-0.019l0.021-0.012l0.028-0.019l0.028-0.017l0.029-0.019l0.033-0.019l0.019-0.012
			l0.033-0.021l0.026-0.016l0.031-0.014l0.028-0.021l0.026-0.014l0.031-0.017l0.028-0.014l0.029-0.021l0.028-0.016l0.028-0.019
			l0.021-0.012l-0.303-0.518l-0.021,0.012l-0.031,0.021l-0.028,0.019l-0.028,0.014l-0.029,0.021l-0.028,0.012l-0.033,0.019
			l-0.023,0.019l-0.033,0.019l-0.031,0.014l-0.026,0.019l-0.028,0.014l-0.036,0.024l-0.024,0.017l-0.026,0.012l-0.028,0.019
			l-0.036,0.021l-0.023,0.016h-0.005L562.562,1135.344L562.562,1135.344z M563.579,1134.75l0.026-0.014l0.031-0.019l0.031-0.01
			l0.033-0.016l0.024-0.014l0.033-0.019l0.036-0.019l0.031-0.019l0.028-0.012l0.026-0.016l0.036-0.016l0.031-0.014l0.028-0.019
			l0.028-0.014l0.036-0.014l0.033-0.019l0.029-0.012l0,0l-0.26-0.542l-0.007,0.007l-0.033,0.012l-0.031,0.014l-0.031,0.019
			l-0.035,0.014l-0.033,0.019l-0.031,0.019l-0.031,0.016l-0.031,0.014l-0.033,0.014l-0.031,0.021l-0.031,0.012l-0.033,0.021
			l-0.031,0.017l-0.035,0.012l-0.024,0.017l-0.036,0.021l-0.028,0.01L563.579,1134.75L563.579,1134.75z M564.636,1134.221h0.002
			l0.038-0.012l0.033-0.019l0.026-0.01l0.038-0.017l0.033-0.012l0.031-0.019l0.031-0.016l0.036-0.014l0.033-0.012l0.083-0.036
			l0.08-0.035l0.073-0.033l-0.232-0.549l-0.08,0.031l-0.083,0.038l-0.076,0.033l-0.038,0.017l-0.028,0.016l-0.038,0.012
			l-0.038,0.014l-0.033,0.017l-0.031,0.014l-0.033,0.014l-0.04,0.016l-0.031,0.014l-0.007,0.007L564.636,1134.221L564.636,1134.221z
			 M565.724,1133.752l0.029-0.01l0.083-0.035l0.08-0.033l0.09-0.038l0.081-0.033l0.085-0.038l0.083-0.031l0.024-0.009l-0.23-0.553
			l-0.023,0.009l-0.085,0.035l-0.083,0.033l-0.085,0.04l-0.08,0.028l-0.088,0.038l-0.085,0.038l-0.026,0.01L565.724,1133.752
			L565.724,1133.752z M566.833,1133.296l0.021-0.009l0.085-0.04l0.087-0.033l0.088-0.029l0.085-0.038l0.087-0.04l0.088-0.035
			l0.009-0.002l-0.225-0.558l-0.012,0.005l-0.085,0.04l-0.088,0.033l-0.09,0.038l-0.085,0.033l-0.09,0.038l-0.085,0.038
			l-0.021,0.005L566.833,1133.296L566.833,1133.296z M567.94,1132.846l0.054-0.031l0.092-0.033l0.088-0.038l0.09-0.035l0.092-0.038
			l0.087-0.033l0.054-0.024l-0.229-0.556l-0.05,0.021l-0.09,0.035l-0.087,0.036l-0.092,0.038l-0.092,0.04l-0.087,0.038l-0.057,0.021
			L567.94,1132.846L567.94,1132.846z M569.052,1132.392l0.035-0.016l0.09-0.038l0.092-0.035l0.092-0.036l0.092-0.038l0.094-0.04
			l0.055-0.019l-0.222-0.565l-0.059,0.028l-0.097,0.043l-0.085,0.035l-0.095,0.036l-0.094,0.038l-0.097,0.038l-0.026,0.014
			L569.052,1132.392L569.052,1132.392z M570.161,1131.938l0.04-0.014l0.097-0.042l0.09-0.036l0.095-0.043l0.097-0.035l0.097-0.043
			l0.04-0.014l-0.227-0.553l-0.043,0.017l-0.094,0.038l-0.095,0.043l-0.095,0.035l-0.094,0.04l-0.095,0.038l-0.038,0.014
			L570.161,1131.938L570.161,1131.938z M571.27,1131.479l0.076-0.031l0.097-0.035l0.097-0.04l0.099-0.043l0.095-0.04l0.092-0.035
			l-0.23-0.553l-0.094,0.035l-0.095,0.04l-0.097,0.04l-0.097,0.038l-0.094,0.045l-0.076,0.033L571.27,1131.479L571.27,1131.479z
			 M572.384,1131.023l0.031-0.012l0.102-0.043l0.102-0.043l0.099-0.043l0.092-0.042l0.097-0.043l0.026-0.009l-0.234-0.549
			l-0.021,0.01l-0.097,0.036l-0.104,0.047l-0.092,0.043l-0.099,0.035l-0.102,0.043l-0.033,0.014L572.384,1131.023L572.384,1131.023z
			 M573.486,1130.555l0.019-0.012l0.097-0.04l0.104-0.04l0.1-0.047l0.101-0.04l0.1-0.043l0.033-0.014l-0.239-0.553l-0.033,0.017
			l-0.099,0.042l-0.102,0.045l-0.099,0.04l-0.097,0.047l-0.099,0.038l-0.019,0.005L573.486,1130.555L573.486,1130.555z
			 M574.586,1130.077l0.021-0.009l0.104-0.04l0.099-0.052l0.099-0.038l0.099-0.047l0.107-0.047l0.024-0.01l-0.244-0.546
			l-0.021,0.009l-0.104,0.045l-0.099,0.047l-0.102,0.038l-0.107,0.05l-0.097,0.043l-0.021,0.01L574.586,1130.077L574.586,1130.077z
			 M575.688,1129.59l0.038-0.014l0.104-0.047l0.099-0.05l0.104-0.047l0.102-0.042l0.097-0.047l-0.248-0.546l-0.097,0.047
			l-0.102,0.043l-0.104,0.047l-0.102,0.05l-0.099,0.047l-0.04,0.012L575.688,1129.59L575.688,1129.59z M576.781,1129.091l0.071-0.04
			l0.104-0.043l0.104-0.047l0.104-0.05l0.104-0.05l0.059-0.026l-0.258-0.546l-0.057,0.031l-0.102,0.045l-0.104,0.052l-0.102,0.045
			l-0.104,0.052l-0.078,0.031L576.781,1129.091L576.781,1129.091z M577.868,1128.573l0.021-0.012l0.104-0.04l0.102-0.057
			l0.107-0.047l0.104-0.052l0.1-0.05l0.005-0.007l-0.263-0.535h-0.007l-0.102,0.052l-0.099,0.045l-0.104,0.054l-0.104,0.052
			l-0.104,0.047l-0.024,0.01L577.868,1128.573L577.868,1128.573z M578.949,1128.046l0.08-0.038l0.104-0.059l0.107-0.05l0.102-0.05
			l0.104-0.054l0.042-0.021l-0.272-0.527l-0.038,0.012l-0.106,0.054l-0.099,0.052l-0.104,0.052l-0.107,0.052l-0.08,0.04
			L578.949,1128.046L578.949,1128.046z M580.025,1127.504l0.05-0.031l0.107-0.052l0.104-0.05l0.104-0.059l0.106-0.054l0.062-0.033
			l-0.284-0.532l-0.057,0.031l-0.106,0.059l-0.102,0.05l-0.102,0.052l-0.107,0.059l-0.052,0.026L580.025,1127.504L580.025,1127.504z
			 M581.09,1126.943l0.033-0.021l0.102-0.057l0.109-0.05l0.107-0.066l0.099-0.05l0.076-0.043l-0.284-0.525l-0.076,0.038
			l-0.104,0.057l-0.109,0.054l-0.102,0.057l-0.102,0.059l-0.035,0.014L581.09,1126.943L581.09,1126.943z M582.142,1126.359
			l0.026-0.014l0.106-0.052l0.107-0.064l0.102-0.057l0.104-0.062l0.08-0.045l-0.298-0.523l-0.078,0.05l-0.102,0.054l-0.107,0.066
			l-0.104,0.054l-0.102,0.059l-0.029,0.012L582.142,1126.359L582.142,1126.359z M583.192,1125.768l0.024-0.019l0.104-0.059
			l0.104-0.062l0.104-0.064l0.106-0.064l0.071-0.04l-0.305-0.521l-0.076,0.05l-0.099,0.059l-0.106,0.057l-0.104,0.062l-0.102,0.064
			l-0.028,0.014L583.192,1125.768L583.192,1125.768z M584.226,1125.148l0.035-0.026l0.102-0.062l0.107-0.064l0.104-0.066
			l0.102-0.064l0.059-0.033l-0.317-0.513l-0.057,0.038l-0.104,0.064l-0.104,0.066l-0.102,0.064l-0.104,0.059l-0.036,0.021
			L584.226,1125.148L584.226,1125.148z M585.245,1124.51l0.05-0.038l0.109-0.059l0.104-0.069l0.099-0.069l0.106-0.066l0.04-0.028
			l-0.333-0.497l-0.035,0.016l-0.102,0.071l-0.099,0.066l-0.107,0.071l-0.101,0.059l-0.052,0.038L585.245,1124.51L585.245,1124.51z
			 M586.255,1123.85l0.076-0.05l0.107-0.068l0.104-0.076l0.102-0.069l0.102-0.071l0.009-0.007l-0.338-0.492l-0.012,0.005
			l-0.097,0.066l-0.104,0.076l-0.099,0.069l-0.104,0.066l-0.08,0.052L586.255,1123.85L586.255,1123.85z M587.246,1123.166
			l0.009-0.002l0.106-0.076l0.097-0.071l0.104-0.073l0.104-0.071l0.073-0.054l-0.353-0.49l-0.073,0.057l-0.099,0.069l-0.102,0.073
			l-0.104,0.073l-0.097,0.068l-0.009,0.007L587.246,1123.166L587.246,1123.166z M588.229,1122.462l0.045-0.031l0.102-0.078
			l0.101-0.073l0.102-0.078l0.099-0.071l0.031-0.028l-0.362-0.478l-0.031,0.026l-0.097,0.071l-0.099,0.076l-0.102,0.073
			l-0.102,0.078l-0.047,0.033L588.229,1122.462L588.229,1122.462z M589.19,1121.733l0.092-0.071l0.099-0.076l0.097-0.078
			l0.102-0.083l0.083-0.064l-0.374-0.468l-0.078,0.066l-0.099,0.078l-0.1,0.076l-0.097,0.08l-0.095,0.071L589.19,1121.733
			L589.19,1121.733z M590.131,1120.984l-0.378-0.461l0.045-0.04l0.128-0.106l0.128-0.107l0.13-0.099l0.026-0.028l0.39,0.459
			l-0.031,0.026l-0.128,0.109l-0.132,0.109l-0.128,0.104L590.131,1120.984L590.131,1120.984z M591.06,1120.21l0.024-0.021
			l0.121-0.109l0.132-0.114l0.128-0.109l0.047-0.047l-0.397-0.447l-0.045,0.038l-0.125,0.111l-0.125,0.114l-0.128,0.109
			l-0.024,0.024L591.06,1120.21L591.06,1120.21z M591.961,1119.409l0.005-0.007l0.13-0.111l0.123-0.116l0.123-0.114l0.061-0.059
			l-0.407-0.44l-0.062,0.059l-0.125,0.113l-0.118,0.111l-0.125,0.111l-0.007,0.01L591.961,1119.409L591.961,1119.409z
			 M592.846,1118.588l0.113-0.106l0.128-0.123l0.118-0.118l0.071-0.069l-0.416-0.43l-0.071,0.071l-0.123,0.116l-0.121,0.118
			l-0.116,0.109L592.846,1118.588L592.846,1118.588z M593.709,1117.746l0.102-0.102l0.121-0.123l0.121-0.123l0.078-0.078
			l-0.426-0.421l-0.083,0.08l-0.116,0.121l-0.121,0.118l-0.102,0.106L593.709,1117.746L593.709,1117.746z M594.551,1116.883
			l0.094-0.097l0.116-0.125l0.116-0.125l0.085-0.09l-0.438-0.411l-0.083,0.097l-0.113,0.116l-0.118,0.125l-0.094,0.099
			L594.551,1116.883L594.551,1116.883z M595.374,1116.003l0.085-0.097l0.116-0.125l0.116-0.13l0.087-0.092l-0.452-0.402
			l-0.083,0.095l-0.111,0.123l-0.114,0.123l-0.087,0.102L595.374,1116.003L595.374,1116.003z M596.173,1115.104l0.087-0.099
			l0.111-0.13l0.114-0.137l0.083-0.092l-0.457-0.388l-0.08,0.09l-0.111,0.137l-0.109,0.125l-0.088,0.097L596.173,1115.104
			L596.173,1115.104z M596.959,1114.184l0.085-0.099l0.113-0.135l0.107-0.132l0.08-0.097l-0.466-0.381l-0.076,0.097l-0.109,0.128
			l-0.109,0.137l-0.092,0.099L596.959,1114.184L596.959,1114.184z M597.722,1113.252l0.088-0.116l0.109-0.135l0.111-0.132
			l0.066-0.09l-0.473-0.367l-0.066,0.08l-0.104,0.135l-0.109,0.137l-0.09,0.116L597.722,1113.252L597.722,1113.252z
			 M598.465,1112.306l0.099-0.13l0.104-0.135l0.106-0.142l0.057-0.071l-0.48-0.36l-0.052,0.069l-0.102,0.137l-0.106,0.137
			l-0.099,0.13L598.465,1112.306L598.465,1112.306z M599.196,1111.344v-0.005l0.104-0.142l0.106-0.14l0.102-0.137l0.043-0.059
			l-0.485-0.352l-0.04,0.054l-0.102,0.142l-0.102,0.135l-0.106,0.146l-0.007,0.005L599.196,1111.344L599.196,1111.344z
			 M599.901,1110.374l0.024-0.028l0.097-0.147l0.102-0.137l0.107-0.147l0.019-0.031l-0.487-0.345l-0.024,0.026l-0.104,0.147
			l-0.099,0.139l-0.102,0.144l-0.021,0.026L599.901,1110.374L599.901,1110.374z M600.591,1109.39l0.04-0.059l0.102-0.144
			l0.099-0.147l0.097-0.144l0.002-0.002l-0.497-0.333l0,0l-0.097,0.144l-0.097,0.144l-0.099,0.149l-0.04,0.05L600.591,1109.39
			L600.591,1109.39z M601.268,1108.392l0.062-0.087l0.094-0.154l0.1-0.144l0.076-0.121l-0.499-0.329l-0.073,0.118l-0.104,0.149
			l-0.097,0.146l-0.057,0.087L601.268,1108.392L601.268,1108.392z M601.928,1107.382l0.083-0.123l0.095-0.156l0.097-0.151
			l0.05-0.073l-0.506-0.322l-0.052,0.078l-0.095,0.149l-0.097,0.149l-0.078,0.128L601.928,1107.382L601.928,1107.382z
			 M602.571,1106.368l0.014-0.021l0.092-0.154l0.092-0.151l0.095-0.156l0.021-0.028l-0.513-0.312l-0.016,0.028l-0.094,0.149
			l-0.092,0.156l-0.095,0.154l-0.014,0.021L602.571,1106.368L602.571,1106.368z M603.198,1105.337l0.042-0.064l0.092-0.156
			l0.092-0.156l0.08-0.137l-0.516-0.305l-0.085,0.137l-0.085,0.153l-0.094,0.151l-0.04,0.069L603.198,1105.337L603.198,1105.337z
			 M603.812,1104.306l0.069-0.128l0.09-0.154l0.09-0.158l0.052-0.078l-0.523-0.301l-0.047,0.078l-0.092,0.156l-0.088,0.156
			l-0.071,0.125L603.812,1104.306L603.812,1104.306z M604.406,1103.26l0.016-0.026l0.085-0.159l0.092-0.156l0.09-0.166l0.009-0.016
			l-0.523-0.296l-0.014,0.021l-0.087,0.163l-0.088,0.156l-0.087,0.156l-0.017,0.021L604.406,1103.26L604.406,1103.26z
			 M604.99,1102.208l0.052-0.094l0.09-0.156l0.085-0.158l0.059-0.118l-0.525-0.291l-0.062,0.125l-0.09,0.158l-0.085,0.156
			l-0.047,0.094L604.99,1102.208L604.99,1102.208z M605.562,1101.148l0.085-0.158l0.085-0.166l0.085-0.158l0.028-0.047l-0.532-0.274
			l-0.026,0.04l-0.083,0.163l-0.088,0.165l-0.085,0.161L605.562,1101.148L605.562,1101.148z M606.121,1100.089l0.038-0.076
			l0.085-0.166l0.083-0.165l0.071-0.13l-0.537-0.272l-0.071,0.13l-0.08,0.163l-0.083,0.166l-0.038,0.073L606.121,1100.089
			L606.121,1100.089z M606.665,1099.01l0.08-0.149l0.08-0.166l0.085-0.168l0.026-0.052l-0.537-0.267l-0.028,0.054l-0.08,0.168
			l-0.08,0.158l-0.08,0.156L606.665,1099.01L606.665,1099.01z M607.201,1097.937l0.033-0.069l0.08-0.173l0.078-0.168l0.066-0.132
			l-0.537-0.26l-0.064,0.135l-0.083,0.168l-0.078,0.166l-0.04,0.066L607.201,1097.937L607.201,1097.937z M607.719,1096.854
			l0.08-0.161l0.078-0.163l0.078-0.175l0.026-0.04l-0.546-0.262l-0.024,0.047l-0.078,0.168l-0.078,0.173l-0.076,0.158
			L607.719,1096.854L607.719,1096.854z M608.235,1095.768l0.036-0.085l0.08-0.17l0.078-0.17l0.057-0.121l-0.546-0.251l-0.059,0.123
			l-0.076,0.17l-0.08,0.163l-0.035,0.085L608.235,1095.768L608.235,1095.768z M608.734,1094.678l0.002-0.019l0.078-0.165
			l0.078-0.173l0.078-0.17l0.012-0.026l-0.551-0.246l-0.009,0.026l-0.076,0.175l-0.08,0.165l-0.076,0.17l-0.002,0.012
			L608.734,1094.678L608.734,1094.678z M609.226,1093.576l0.045-0.111l0.078-0.173l0.073-0.168l0.038-0.099l-0.546-0.239
			l-0.043,0.097l-0.073,0.173l-0.076,0.166l-0.05,0.111L609.226,1093.576L609.226,1093.576z M609.701,1092.476l0.019-0.043
			l0.073-0.175l0.076-0.17l0.069-0.17l-0.551-0.227l-0.071,0.161l-0.073,0.172l-0.071,0.173l-0.021,0.04L609.701,1092.476
			L609.701,1092.476z M610.174,1091.369l0.064-0.149l0.073-0.175l0.071-0.177l0.023-0.054l-0.553-0.227l-0.026,0.054l-0.073,0.172
			l-0.073,0.175l-0.064,0.147L610.174,1091.369L610.174,1091.369z M610.633,1090.26l0.035-0.087l0.073-0.177l0.071-0.171l0.05-0.123
			l-0.556-0.227l-0.047,0.121l-0.076,0.177l-0.073,0.17l-0.031,0.09L610.633,1090.26L610.633,1090.26z M611.082,1089.146
			l0.014-0.021l0.071-0.177l0.068-0.172l0.071-0.18v-0.005l-0.556-0.222l-0.002,0.005l-0.071,0.177l-0.071,0.173l-0.071,0.177
			l-0.007,0.026L611.082,1089.146L611.082,1089.146z M611.532,1088.032l0.052-0.142l0.069-0.168l0.071-0.18l0.028-0.073l-0.56-0.215
			l-0.026,0.069l-0.069,0.173l-0.069,0.175l-0.057,0.142L611.532,1088.032L611.532,1088.032z M611.967,1086.913l0.028-0.078
			l0.071-0.177l0.069-0.18l0.047-0.125l-0.563-0.215l-0.043,0.125l-0.069,0.175l-0.069,0.177l-0.033,0.078L611.967,1086.913
			L611.967,1086.913z M612.395,1085.788l0.007-0.019l0.066-0.177l0.066-0.175l0.069-0.175l0.002-0.012l-0.56-0.21l-0.002,0.005
			l-0.068,0.178l-0.066,0.177l-0.069,0.177l-0.007,0.019L612.395,1085.788L612.395,1085.788z M612.814,1084.667l0.054-0.14
			l0.066-0.182l0.066-0.177l0.021-0.062l-0.56-0.208l-0.024,0.064l-0.066,0.177l-0.064,0.18l-0.052,0.14L612.814,1084.667
			L612.814,1084.667z M613.234,1083.536l0.026-0.08l0.066-0.182l0.062-0.177l0.047-0.123l-0.565-0.203l-0.045,0.123l-0.064,0.177
			l-0.066,0.177l-0.028,0.09L613.234,1083.536z"/>
		<path fill-rule="evenodd" clip-rule="evenodd" fill="#8B8B8A" d="M616.158,1084.39l0.014-0.028l0.064-0.177l0.066-0.175
			l0.064-0.18l-0.558-0.206l-0.071,0.175l-0.066,0.173l-0.062,0.184l-0.012,0.024L616.158,1084.39L616.158,1084.39z
			 M560.379,1139.291l0.012-0.007l0.019-0.009l0.019-0.01l0.021-0.012l0.028-0.014l0.021-0.012l0.012-0.012l0.024-0.014l0.028-0.019
			l0.014-0.002l0.019-0.019l0.031-0.012l0.014-0.009l0.019-0.014l0.024-0.019l0.016-0.002l0.024-0.019l0.021-0.012l0.026-0.014
			l0.021-0.012l0.019-0.016l0.021-0.009l0.021-0.012l0.021-0.019l0.016-0.012l0.017-0.009l-0.324-0.504l-0.007,0.005l-0.028,0.019
			l-0.019,0.014l-0.012,0.012l-0.023,0.01l-0.029,0.012l-0.014,0.012l-0.024,0.016l-0.014,0.009l-0.019,0.012l-0.028,0.019
			l-0.019,0.007l-0.019,0.012l-0.024,0.019l-0.012,0.007l-0.019,0.012l-0.028,0.014l-0.016,0.012l-0.014,0.009l-0.026,0.012
			l-0.021,0.014l-0.014,0.01l-0.021,0.012l-0.021,0.014l-0.019,0.007l-0.009,0.005L560.379,1139.291L560.379,1139.291z
			 M561.41,1138.638h0.007l0.024-0.014l0.021-0.019l0.021-0.014l0.021-0.012l0.024-0.017l0.026-0.014l0.021-0.019l0.026-0.019
			l0.019-0.019l0.019-0.005l0.024-0.014l0.023-0.019l0.024-0.019l0.021-0.016l0.021-0.012l0.026-0.019l0.026-0.01l0.014-0.012
			l0.029-0.021l0.023-0.016l0.019-0.017l0.021-0.012l-0.341-0.494l-0.019,0.014l-0.026,0.019l-0.019,0.01l-0.021,0.017l-0.026,0.016
			l-0.024,0.014l-0.023,0.014l-0.021,0.014l-0.021,0.019l-0.021,0.019l-0.024,0.009l-0.019,0.016l-0.028,0.014l-0.021,0.024
			l-0.019,0.009l-0.024,0.014l-0.019,0.017l-0.023,0.012l-0.024,0.017l-0.019,0.019l-0.024,0.012l-0.021,0.01l-0.005,0.007
			L561.41,1138.638L561.41,1138.638z M562.404,1137.962l0.002-0.005l0.024-0.019l0.021-0.014l0.023-0.019l0.029-0.014l0.024-0.019
			l0.026-0.014l0.023-0.016l0.024-0.019l0.021-0.014l0.024-0.016l0.028-0.019l0.021-0.017l0.028-0.021l0.023-0.014l0.026-0.014
			l0.019-0.019l0.026-0.021l0.026-0.01l0.023-0.016l0.024-0.017l0.007-0.005l-0.341-0.492l0,0l-0.026,0.014l-0.028,0.021
			l-0.021,0.014l-0.021,0.016l-0.031,0.019l-0.028,0.014l-0.024,0.016l-0.019,0.021l-0.026,0.019l-0.023,0.012l-0.028,0.016
			l-0.024,0.017l-0.021,0.019l-0.024,0.012l-0.023,0.021l-0.033,0.019l-0.021,0.014l-0.019,0.01l-0.028,0.024l-0.021,0.016
			l-0.002,0.005L562.404,1137.962L562.404,1137.962z M563.39,1137.288l0.012-0.01l0.023-0.014l0.024-0.019l0.033-0.019l0.023-0.014
			l0.024-0.016l0.021-0.014l0.033-0.019l0.026-0.021l0.021-0.019l0.031-0.014l0.026-0.021l0.021-0.012l0.028-0.016l0.031-0.021
			l0.028-0.017l0.024-0.014l0.028-0.019l0.024-0.014l0.009-0.005l-0.315-0.511l-0.019,0.002l-0.021,0.026l-0.026,0.009l-0.031,0.021
			l-0.028,0.021l-0.021,0.014l-0.031,0.019l-0.033,0.021l-0.024,0.014l-0.021,0.012l-0.033,0.024l-0.026,0.019l-0.019,0.01
			l-0.031,0.019l-0.031,0.026l-0.026,0.012l-0.028,0.017l-0.021,0.021l-0.028,0.014l-0.012,0.005L563.39,1137.288L563.39,1137.288z
			 M564.393,1136.654l0.005-0.007l0.026-0.019l0.026-0.014l0.028-0.014l0.033-0.021l0.026-0.014l0.028-0.012l0.028-0.019
			l0.026-0.021l0.031-0.014l0.031-0.016l0.026-0.019l0.028-0.017l0.031-0.016l0.026-0.017l0.028-0.016l0.033-0.019l0.026-0.009
			l0.019-0.009l-0.293-0.53l-0.016,0.012l-0.033,0.026l-0.031,0.012l-0.031,0.014l-0.031,0.019l-0.031,0.019l-0.026,0.012
			l-0.028,0.021l-0.031,0.016l-0.028,0.014l-0.026,0.021l-0.033,0.014l-0.035,0.021l-0.028,0.014l-0.024,0.014l-0.028,0.024
			l-0.033,0.014l-0.026,0.016l-0.007,0.007L564.393,1136.654L564.393,1136.654z M565.417,1136.072l0.028-0.016l0.031-0.014
			l0.033-0.016l0.026-0.016l0.031-0.01l0.028-0.019l0.036-0.021l0.031-0.014l0.033-0.016l0.024-0.014l0.036-0.014l0.031-0.016
			l0.033-0.012l0.028-0.016l0.031-0.019l0.036-0.012l0.031-0.017l0,0l-0.258-0.546l-0.007,0.005l-0.031,0.019l-0.031,0.014
			l-0.031,0.016l-0.038,0.014l-0.031,0.014l-0.031,0.021l-0.031,0.017l-0.033,0.014l-0.035,0.014l-0.033,0.019l-0.024,0.012
			l-0.033,0.019l-0.028,0.016l-0.038,0.017l-0.033,0.016l-0.031,0.016l-0.024,0.009L565.417,1136.072L565.417,1136.072z
			 M566.476,1135.562l0.009-0.007l0.033-0.014l0.035-0.016l0.028-0.009l0.038-0.012l0.035-0.019l0.028-0.014l0.033-0.014
			l0.035-0.014l0.029-0.012l0.087-0.038l0.078-0.026l0.078-0.04l-0.227-0.551l-0.076,0.031l-0.087,0.033l-0.08,0.038l-0.035,0.014
			l-0.033,0.017l-0.033,0.009l-0.035,0.019l-0.036,0.01l-0.031,0.016l-0.035,0.014l-0.036,0.016l-0.033,0.019h-0.005
			L566.476,1135.562L566.476,1135.562z M567.578,1135.103l0.028-0.012l0.078-0.033l0.087-0.031l0.085-0.036l0.083-0.035l0.085-0.031
			l0.085-0.036l0.024-0.009l-0.222-0.56l-0.024,0.012l-0.085,0.035l-0.085,0.033l-0.085,0.035l-0.085,0.029l-0.088,0.038
			l-0.083,0.033l-0.026,0.012L567.578,1135.103L567.578,1135.103z M568.688,1134.66l0.026-0.012l0.083-0.038l0.088-0.031
			l0.088-0.031l0.087-0.038l0.09-0.036l0.087-0.033l0.009-0.007l-0.217-0.558l-0.012,0.007l-0.09,0.031l-0.085,0.04l-0.087,0.031
			l-0.09,0.04l-0.087,0.031l-0.085,0.035l-0.021,0.007L568.688,1134.66L568.688,1134.66z M569.804,1134.218l0.057-0.021l0.088-0.038
			l0.087-0.033l0.095-0.038l0.09-0.031l0.094-0.038l0.047-0.019l-0.22-0.558l-0.05,0.019l-0.09,0.035l-0.09,0.038l-0.092,0.031
			l-0.09,0.035l-0.087,0.038l-0.057,0.021L569.804,1134.218L569.804,1134.218z M570.92,1133.785l0.033-0.019l0.092-0.031
			l0.092-0.038l0.097-0.038l0.09-0.038l0.09-0.035l0.064-0.029l-0.222-0.551l-0.057,0.021l-0.095,0.038l-0.092,0.038l-0.09,0.036
			l-0.094,0.033l-0.095,0.033l-0.036,0.019L570.92,1133.785L570.92,1133.785z M572.041,1133.348l0.038-0.016l0.094-0.04l0.095-0.036
			l0.092-0.042l0.099-0.033l0.094-0.038l0.043-0.019l-0.224-0.551l-0.04,0.012l-0.092,0.035l-0.097,0.04l-0.097,0.036l-0.095,0.04
			l-0.094,0.033l-0.043,0.019L572.041,1133.348L572.041,1133.348z M573.152,1132.903l0.076-0.031l0.099-0.033l0.094-0.043
			l0.097-0.04l0.097-0.04l0.092-0.038l-0.225-0.554l-0.09,0.038l-0.097,0.04l-0.095,0.031l-0.102,0.045l-0.094,0.038l-0.073,0.031
			L573.152,1132.903L573.152,1132.903z M574.264,1132.461l0.043-0.019l0.092-0.038l0.102-0.04l0.099-0.04l0.097-0.04l0.102-0.04
			l0.024-0.009l-0.225-0.554l-0.024,0.005l-0.102,0.038l-0.097,0.04l-0.102,0.047l-0.095,0.035l-0.102,0.04l-0.038,0.014
			L574.264,1132.461L574.264,1132.461z M575.376,1132l0.024-0.002l0.097-0.045l0.102-0.04l0.099-0.043l0.102-0.04l0.102-0.04
			l0.031-0.017l-0.227-0.553l-0.035,0.017l-0.099,0.038l-0.097,0.045l-0.104,0.038l-0.1,0.042l-0.099,0.043l-0.021,0.007
			L575.376,1132L575.376,1132z M576.487,1131.543l0.019-0.01l0.102-0.045l0.104-0.042l0.102-0.045l0.1-0.038l0.101-0.045
			l0.026-0.012l-0.237-0.549l-0.021,0.009l-0.104,0.04l-0.099,0.043l-0.104,0.043l-0.097,0.045l-0.102,0.038l-0.021,0.012
			L576.487,1131.543L576.487,1131.543z M577.589,1131.07l0.042-0.024l0.104-0.038l0.099-0.05l0.104-0.04l0.104-0.047l0.099-0.047
			l-0.241-0.548l-0.1,0.045l-0.104,0.05l-0.102,0.043l-0.104,0.045l-0.099,0.045l-0.043,0.019L577.589,1131.07L577.589,1131.07z
			 M578.691,1130.585l0.073-0.038l0.109-0.045l0.104-0.045l0.099-0.052l0.104-0.045l0.061-0.028l-0.253-0.542l-0.054,0.028
			l-0.104,0.038l-0.102,0.05l-0.107,0.047l-0.104,0.05l-0.073,0.031L578.691,1130.585L578.691,1130.585z M579.786,1130.084
			l0.019-0.012l0.106-0.05l0.107-0.047l0.102-0.05l0.104-0.05l0.104-0.045h0.002l-0.255-0.544h-0.002l-0.104,0.05l-0.109,0.047
			l-0.1,0.047l-0.102,0.05l-0.106,0.047l-0.019,0.009L579.786,1130.084L579.786,1130.084z M580.872,1129.564l0.085-0.035
			l0.106-0.052l0.102-0.052l0.107-0.05l0.106-0.052l0.036-0.016l-0.263-0.537l-0.036,0.016l-0.104,0.05l-0.106,0.052l-0.104,0.05
			l-0.102,0.05l-0.087,0.04L580.872,1129.564L580.872,1129.564z M581.953,1129.041l0.057-0.031l0.107-0.052l0.102-0.054l0.109-0.05
			l0.104-0.059l0.062-0.028l-0.274-0.534l-0.064,0.028l-0.099,0.057l-0.104,0.05l-0.109,0.059l-0.099,0.047l-0.057,0.026
			L581.953,1129.041L581.953,1129.041z M583.024,1128.49l0.04-0.019l0.104-0.055l0.102-0.057l0.106-0.052l0.106-0.057l0.076-0.038
			l-0.281-0.532l-0.078,0.038l-0.102,0.057l-0.104,0.057l-0.106,0.057l-0.104,0.052l-0.031,0.016L583.024,1128.49L583.024,1128.49z
			 M584.088,1127.927l0.024-0.014l0.109-0.062l0.107-0.054l0.106-0.062l0.104-0.054l0.078-0.05l-0.286-0.521l-0.083,0.045
			l-0.104,0.057l-0.099,0.055l-0.109,0.062l-0.104,0.057l-0.024,0.014L584.088,1127.927L584.088,1127.927z M585.141,1127.345
			l0.028-0.019l0.109-0.059l0.101-0.059l0.109-0.064l0.104-0.059l0.073-0.04l-0.3-0.518l-0.076,0.04l-0.104,0.059l-0.102,0.064
			l-0.104,0.055l-0.104,0.061l-0.026,0.019L585.141,1127.345L585.141,1127.345z M586.186,1126.742l0.033-0.026l0.109-0.064
			l0.107-0.062l0.102-0.066l0.104-0.059l0.061-0.035l-0.31-0.513l-0.062,0.038l-0.104,0.059l-0.102,0.064l-0.107,0.064l-0.104,0.062
			l-0.033,0.019L586.186,1126.742L586.186,1126.742z M587.217,1126.116l0.052-0.038l0.107-0.066l0.104-0.059l0.104-0.066
			l0.104-0.069l0.038-0.026l-0.319-0.504l-0.04,0.021l-0.107,0.066l-0.099,0.064l-0.102,0.071l-0.106,0.061l-0.055,0.033
			L587.217,1126.116L587.217,1126.116z M588.236,1125.468l0.076-0.052l0.106-0.066l0.102-0.068l0.099-0.069l0.109-0.073l0.007-0.002
			l-0.331-0.499l-0.012,0.01l-0.099,0.064l-0.102,0.068l-0.107,0.069l-0.097,0.066l-0.078,0.052L588.236,1125.468L588.236,1125.468z
			 M589.237,1124.801l0.012-0.007l0.099-0.068l0.107-0.073l0.102-0.073l0.097-0.071l0.08-0.052l-0.345-0.492l-0.073,0.052
			l-0.102,0.073l-0.107,0.071l-0.097,0.069l-0.104,0.073h-0.005L589.237,1124.801L589.237,1124.801z M590.223,1124.105l0.05-0.031
			l0.102-0.078l0.099-0.071l0.104-0.078l0.099-0.068l0.036-0.029l-0.357-0.482l-0.031,0.028l-0.102,0.071l-0.099,0.073l-0.102,0.073
			l-0.099,0.071l-0.045,0.035L590.223,1124.105L590.223,1124.105z M591.193,1123.386l0.095-0.061l0.104-0.076l0.099-0.078
			l0.102-0.085l0.083-0.057l-0.367-0.473l-0.083,0.057l-0.102,0.08l-0.099,0.073l-0.102,0.076l-0.09,0.073L591.193,1123.386
			L591.193,1123.386z M592.15,1122.656l-0.374-0.473l0.045-0.031l0.128-0.104l0.13-0.106l0.13-0.102l0.031-0.028l0.381,0.461
			l-0.033,0.026l-0.13,0.107l-0.137,0.109l-0.128,0.104L592.15,1122.656L592.15,1122.656z M593.085,1121.889l0.024-0.021l0.13-0.104
			l0.125-0.114l0.13-0.111l0.05-0.035l-0.393-0.464l-0.045,0.047l-0.128,0.106l-0.132,0.113l-0.123,0.107l-0.021,0.019
			L593.085,1121.889L593.085,1121.889z M593.997,1121.099h0.01l0.123-0.116l0.128-0.111l0.128-0.111l0.062-0.057l-0.402-0.452
			l-0.059,0.057l-0.125,0.114l-0.125,0.118l-0.123,0.104l-0.014,0.012L593.997,1121.099L593.997,1121.099z M594.889,1120.293
			l0.123-0.109l0.121-0.116l0.125-0.121l0.073-0.068l-0.416-0.435l-0.069,0.073l-0.125,0.111l-0.121,0.121l-0.121,0.106
			L594.889,1120.293L594.889,1120.293z M595.764,1119.463l0.104-0.104l0.125-0.116l0.121-0.123l0.08-0.078l-0.423-0.426l-0.08,0.08
			l-0.118,0.121l-0.123,0.119l-0.102,0.101L595.764,1119.463L595.764,1119.463z M596.618,1118.612l0.094-0.099l0.121-0.125
			l0.121-0.121l0.088-0.09l-0.433-0.416l-0.088,0.087l-0.121,0.121l-0.116,0.128l-0.092,0.097L596.618,1118.612L596.618,1118.612z
			 M597.453,1117.741l0.09-0.095l0.118-0.128l0.118-0.125l0.083-0.094l-0.444-0.404l-0.081,0.092l-0.116,0.121l-0.116,0.121
			l-0.09,0.104L597.453,1117.741L597.453,1117.741z M598.271,1116.852l0.078-0.095l0.118-0.128l0.118-0.132l0.08-0.094l-0.449-0.397
			l-0.085,0.092l-0.109,0.13l-0.116,0.128l-0.085,0.097L598.271,1116.852L598.271,1116.852z M599.063,1115.944l0.088-0.104
			l0.111-0.128l0.116-0.132l0.076-0.095l-0.461-0.385l-0.073,0.092l-0.114,0.125l-0.111,0.137l-0.087,0.104L599.063,1115.944
			L599.063,1115.944z M599.834,1115.019l0.099-0.109l0.111-0.132l0.109-0.137l0.064-0.08l-0.466-0.381l-0.066,0.085l-0.111,0.137
			l-0.107,0.125l-0.09,0.114L599.834,1115.019L599.834,1115.019z M600.598,1114.085l0.102-0.121l0.104-0.14l0.106-0.139l0.057-0.073
			l-0.475-0.364l-0.052,0.066l-0.109,0.14l-0.107,0.135l-0.102,0.128L600.598,1114.085L600.598,1114.085z M601.339,1113.134
			l0.002-0.007l0.104-0.137l0.107-0.142l0.106-0.137l0.043-0.057l-0.48-0.359l-0.043,0.059l-0.104,0.135l-0.106,0.142l-0.104,0.14
			l-0.002,0.002L601.339,1113.134L601.339,1113.134z M602.058,1112.169l0.024-0.026l0.102-0.144l0.102-0.14l0.107-0.144l0.021-0.028
			l-0.492-0.348l-0.019,0.024l-0.102,0.142l-0.106,0.142l-0.097,0.146l-0.023,0.021L602.058,1112.169L602.058,1112.169z
			 M602.762,1111.195l0.038-0.054l0.099-0.142l0.104-0.146l0.102-0.151l0,0l-0.487-0.336h-0.002l-0.104,0.144l-0.102,0.142
			l-0.097,0.14l-0.04,0.057L602.762,1111.195L602.762,1111.195z M603.451,1110.206l0.059-0.085l0.102-0.146l0.099-0.147l0.076-0.121
			l-0.494-0.331l-0.083,0.109l-0.095,0.154l-0.099,0.142l-0.059,0.09L603.451,1110.206L603.451,1110.206z M604.125,1109.211
			l0.08-0.132l0.102-0.144l0.092-0.149l0.052-0.085l-0.504-0.322l-0.05,0.08l-0.097,0.142l-0.095,0.149l-0.087,0.132
			L604.125,1109.211L604.125,1109.211z M604.777,1108.196l0.014-0.014l0.097-0.151l0.097-0.154l0.097-0.154l0.021-0.031
			l-0.513-0.319l-0.019,0.031l-0.092,0.149l-0.099,0.151l-0.095,0.151l-0.014,0.021L604.777,1108.196L604.777,1108.196z
			 M605.418,1107.179l0.04-0.066l0.094-0.156l0.097-0.154l0.083-0.132l-0.508-0.312l-0.087,0.135l-0.092,0.153l-0.095,0.147
			l-0.04,0.076L605.418,1107.179L605.418,1107.179z M606.04,1106.155l0.076-0.125l0.095-0.151l0.092-0.163l0.045-0.076l-0.511-0.307
			l-0.05,0.08l-0.092,0.154l-0.092,0.154l-0.071,0.128L606.04,1106.155L606.04,1106.155z M606.653,1105.117l0.014-0.028l0.094-0.154
			l0.092-0.156l0.092-0.163l0.014-0.019l-0.525-0.301l-0.012,0.026l-0.087,0.154l-0.092,0.159l-0.088,0.154l-0.019,0.026
			L606.653,1105.117L606.653,1105.117z M607.256,1104.074l0.047-0.092l0.09-0.156l0.092-0.158l0.061-0.121l-0.525-0.286
			l-0.062,0.116l-0.09,0.151l-0.092,0.163l-0.043,0.095L607.256,1104.074L607.256,1104.074z M607.838,1103.024l0.09-0.161
			l0.085-0.161l0.087-0.161l0.031-0.045l-0.532-0.284l-0.024,0.04l-0.085,0.163l-0.092,0.163l-0.083,0.159L607.838,1103.024
			L607.838,1103.024z M608.41,1101.962l0.038-0.071l0.088-0.161l0.085-0.166l0.073-0.13l-0.534-0.281l-0.066,0.135l-0.088,0.161
			l-0.083,0.161l-0.045,0.078L608.41,1101.962L608.41,1101.962z M608.971,1100.902l0.078-0.154l0.085-0.163l0.085-0.168l0.024-0.05
			l-0.532-0.27l-0.023,0.052l-0.09,0.161l-0.083,0.161l-0.076,0.156L608.971,1100.902L608.971,1100.902z M609.517,1099.829
			l0.036-0.071l0.087-0.163l0.08-0.168l0.066-0.135l-0.539-0.267l-0.066,0.137l-0.08,0.163l-0.08,0.166l-0.036,0.076
			L609.517,1099.829L609.517,1099.829z M610.054,1098.757l0.08-0.161l0.08-0.165l0.08-0.166l0.021-0.05l-0.539-0.26l-0.019,0.04
			l-0.085,0.168l-0.08,0.17l-0.076,0.161L610.054,1098.757L610.054,1098.757z M610.579,1097.677l0.04-0.09l0.085-0.161l0.073-0.175
			l0.061-0.116l-0.539-0.256l-0.061,0.119l-0.078,0.168l-0.08,0.168l-0.043,0.083L610.579,1097.677L610.579,1097.677z
			 M611.092,1096.589l0.005-0.01l0.08-0.175l0.083-0.163l0.073-0.175l0.012-0.021l-0.544-0.253l-0.012,0.026l-0.076,0.17
			l-0.08,0.165l-0.08,0.173l-0.005,0.012L611.092,1096.589L611.092,1096.589z M611.598,1095.496l0.05-0.109l0.076-0.173l0.083-0.168
			l0.038-0.095l-0.546-0.246l-0.043,0.092l-0.076,0.17l-0.078,0.173l-0.05,0.109L611.598,1095.496L611.598,1095.496z
			 M612.092,1094.406l0.021-0.047l0.073-0.17l0.076-0.17l0.071-0.166l-0.546-0.241l-0.071,0.168l-0.078,0.165l-0.076,0.173
			l-0.017,0.04L612.092,1094.406L612.092,1094.406z M612.575,1093.304l0.066-0.151l0.076-0.17l0.076-0.173l0.021-0.052l-0.553-0.241
			l-0.019,0.059l-0.076,0.165l-0.076,0.175l-0.064,0.144L612.575,1093.304L612.575,1093.304z M613.052,1092.204l0.038-0.088
			l0.071-0.173l0.078-0.177l0.05-0.116l-0.554-0.239l-0.05,0.121l-0.076,0.177l-0.073,0.165l-0.038,0.09L613.052,1092.204
			L613.052,1092.204z M613.518,1091.097l0.012-0.028l0.073-0.173l0.069-0.173l0.073-0.177l0.005-0.005l-0.556-0.229l-0.005,0.002
			l-0.069,0.18l-0.076,0.168l-0.069,0.177l-0.012,0.026L613.518,1091.097L613.518,1091.097z M613.977,1089.986l0.057-0.14
			l0.066-0.177l0.076-0.175l0.028-0.062l-0.553-0.227l-0.031,0.068l-0.069,0.175l-0.069,0.17l-0.059,0.14L613.977,1089.986
			L613.977,1089.986z M614.424,1088.874l0.036-0.076l0.068-0.185l0.071-0.177l0.052-0.123l-0.556-0.222l-0.052,0.125l-0.069,0.177
			l-0.069,0.175l-0.033,0.078L614.424,1088.874L614.424,1088.874z M614.874,1087.755l0.005-0.024l0.073-0.175l0.069-0.175
			l0.069-0.177v-0.01l-0.558-0.215l-0.002,0.005l-0.068,0.177l-0.071,0.175l-0.069,0.18l-0.005,0.019L614.874,1087.755
			L614.874,1087.755z M615.309,1086.634l0.054-0.137l0.064-0.182l0.069-0.177l0.026-0.066l-0.56-0.206l-0.021,0.059l-0.071,0.177
			l-0.066,0.18l-0.059,0.142L615.309,1086.634L615.309,1086.634z M615.737,1085.516l0.031-0.083l0.069-0.18l0.064-0.18l0.047-0.121
			l-0.56-0.213l-0.043,0.128l-0.069,0.173l-0.068,0.177l-0.033,0.087L615.737,1085.516z"/>
	</g>
	<path fill-rule="evenodd" clip-rule="evenodd" d="M437.011,180.67c-1.899,5.071-7.603,15.213-10.139,43.097
		c-2.538,27.887,0.002,35.493-1.268,46.268c-1.27,10.774-2.535,35.49,10.141,67.18c12.674,31.69,20.916,32.957,6.338,48.802
		c-14.578,15.844-24.085,14.575-24.085,14.575s20.911,0.635,32.323-18.378c11.409-19.013,8.876-22.183,5.073-32.956
		c-3.805-10.775,25.348,20.279,1.899,49.434c-23.449,29.155,16.477,2.535,15.209-27.253c-1.265-29.787,25.353,29.788,6.34,60.843
		c-19.012,31.056-12.679,42.462,2.533,47.533c15.212,5.072,22.186-5.069,22.186-5.069s-24.717,7.606-21.55-12.041
		c3.167-19.647,15.209-9.507,15.209-38.661c0-29.153,15.212,22.816,32.322,17.746c17.113-5.071,13.31-77.321,13.31-77.321
		L437.011,180.67z"/>
	<path fill-rule="evenodd" clip-rule="evenodd" fill="#3C3C3B" d="M723.758,164.12c0,0-23.983,11.42,5.709,29.691
		c29.693,18.273,38.831,33.119,37.686,73.09c-1.14,39.97-59.385,52.532-36.541,86.793c22.839,34.259,29.69,10.277,29.69,10.277
		s-14.847,38.829-34.259-6.853c-9.136-15.987-23.354,15.059,9.765,45.894c21.006,17.959,46.193,8.923,46.193,8.923
		s-42.22,19.031-70.25-1.129c-19.315-13.892-19.97-41.125-19.97-41.125s-3.595,61.359,45.044,65.182
		c30.154,2.371,27.794,31.194,26.426,34.56c0,0-8.329,23.91-27.103,25.411c-8.474,0.679,8.325-0.72,16.262-22.361
		c3.725-10.165-13.892-15.925-23.716-15.925c-18.31,0-15.214,11.347-23.21,18.199c-7.994,6.853-19.412,10.278-25.123,6.853
		c-5.709-3.426-39.968-75.373-39.968-75.373s3.424-42.255,6.851-45.681c3.427-3.427,17.13-15.988,21.699-21.698
		c4.567-5.711,31.977-170.161,31.977-170.161L723.758,164.12z"/>
	<path fill-rule="evenodd" clip-rule="evenodd" fill="#F3CBA9" d="M552.187,1075.465c1.138,2.623,4.11-0.986,7.126-0.868
		c4.42,0.172,8.256-0.473,11.889-1.856c0.324-127.568,12.149-330.979,20.407-454.633c-26.079,2.696-51.451,10.614-77.527,13.308
		c0.622,11.326-0.534,17.64,0.738,53.749c0.237,102.471,33.793,280.252,36.201,388.413
		C551.456,1074.114,551.86,1074.717,552.187,1075.465z"/>
	<path fill-rule="evenodd" clip-rule="evenodd" fill="#F3CBA9" d="M606.719,1076.153c1.109,0.461,2.235,0.882,3.394,1.209
		c3.131,0.896,7.119,2.303,10.354,2.031c3.992-0.338,7.712-1.57,11.25-3.271c0.97-127.27,34.515-328.493,30.885-450.499
		c-26.077,2.708-100.278,3.238-126.355,5.936c9.117,30.13,33.848,35.88,59.536,61.892
		C596.02,798.097,606.102,968.945,606.719,1076.153z"/>
	<path fill-rule="evenodd" clip-rule="evenodd" d="M714.416,263.165l-287.712,1.214c-3.744,35.073,4.827,40.105,20.952,68.211
		c7.237,12.649,55.632,48.647,65.683,48.647c25.341,41.666-14.871,117.888,50.966,97.398c28.926-9.003,81.524-36.766,102.395-15.014
		c33.531,34.943,45.387-4.363,37.597-8.089c-25.526-13.896-83.496-48.015-22.456-97.922
		C706.38,337.541,714.416,292.292,714.416,263.165z"/>
	<path fill-rule="evenodd" clip-rule="evenodd" fill="#F3CBA9" d="M692.195,608.853l-3.477,5.189l10.761,77.643l20.692,1.405
		l-0.818-85.509C726.485,594.954,692.24,608.786,692.195,608.853z"/>
	<g>
		<path fill-rule="evenodd" clip-rule="evenodd" fill="#3C3C3B" d="M472.335,642.703l-0.305-4.345
			c-1.755-25.388,24.646-98.781,32.1-131.357c2.315-10.147,27.855-60.17,27.38-68.056c-0.974,22.575,7.762,6.161-2.382,37.646
			l-0.39,3.085c-5.224,40.482-35.231,102.629-42.438,149.049c-1.242,7.989-9.013,9.363-11.946,15.505
			C472.94,644.023,472.446,644.389,472.335,642.703z"/>
		<path fill-rule="evenodd" clip-rule="evenodd" fill="#3C3C3B" d="M522.811,579.416l-5.551,1.802
			c-20.892,6.788-73.071,15.484-79.88,24.182c-4.098,5.241,8.597,65.518,23.695,75.907c24.506,16.855,34.219,14.41,59.91,7.514
			c0.123-11.028,14.318-106.631,6.821-108.456C527.187,577.15,526.966,578.067,522.811,579.416z"/>
		<path fill-rule="evenodd" clip-rule="evenodd" fill="#818080" d="M442.969,610.83c0.402-3.758,11.61-2.308,14.909-0.693
			c0.281,0.144,0.955,21.543,4.886,37.871c4.754,19.736,12.901,35.099,12.965,36.083c-5.842,0.199-10.512-4.905-15.801-16.073
			C457.686,663.744,441.822,621.416,442.969,610.83z"/>
	</g>
	<g>
		<g>
			<g>
				<path fill-rule="evenodd" clip-rule="evenodd" fill="#E8D8CE" d="M574.056,395.543c0.213,0.026,0.407-0.011,0.605-0.198
					C574.522,395.255,574.319,395.329,574.056,395.543z"/>
				<path fill-rule="evenodd" clip-rule="evenodd" fill="#E8D8CE" d="M714.877,525.949c-3.555-21.464-34.446-65.695-54.719-98.713
					c-0.324-0.032-2.689-4.192-3.013-4.159c0.433-1.595-1.558-2.959-2.75-3.989l-35.399-23.573
					c-0.549-0.712-4.678-1.308-5.189-1.345c-0.125-0.009-0.255-0.016-0.381-0.024l-1.32-0.803c0.012,0.236,0.009,0.48,0.014,0.72
					c-11.018-0.626-20.5-3.854-35.69,6.014c2.304-4.248-3.42-3.679-2.374-4.536c-1.225-0.157-15.661-3.757-21.663,5.756
					c-45.113,71.448-63.588,52.22-27.791,114.564c5.104,17.014,0.891,14.292-3.361,32.355c-1.864,7.904-2.878,12.45-8.533,18.189
					c-14.195,22.619-2.173,29.908,12.946,32.107c2.881,0.416,22.21,6.267,23.329,1.811c19.764,2.02,42.721,2.658,63.493,1.951
					c1.909,3.039,3.775,4.749,5.522,4.791c27.335,0.646,64.99-11.839,47.477-46.101c-10.995-34.897-17.846-42.31-13.263-81.971
					c14.911,23.143,25.805,40.524,29.851,56.315c14.812,45.73-6.757,102.655,10.619,127.821c18.667-6.343,21.001-0.258,26.966-0.598
					C742.415,640.965,718.446,596.025,714.877,525.949z"/>
			</g>
		</g>
		<g>
			<circle fill="#AA3930" cx="570.267" cy="419.465" r="2.096"/>
			<circle fill="#AA3930" cx="594.537" cy="419.465" r="2.096"/>
			<circle fill="#AA3930" cx="618.804" cy="419.465" r="2.096"/>
			<circle fill="#AA3930" cx="582.104" cy="406.709" r="2.097"/>
			<circle fill="#AA3930" cx="606.371" cy="406.709" r="2.097"/>
			<circle fill="#AA3930" cx="521.733" cy="443.254" r="2.097"/>
			<circle fill="#AA3930" cx="546" cy="443.254" r="2.097"/>
			<circle fill="#AA3930" cx="570.267" cy="443.254" r="2.097"/>
			<circle fill="#AA3930" cx="594.537" cy="443.254" r="2.097"/>
			<circle fill="#AA3930" cx="618.804" cy="443.254" r="2.097"/>
			<circle fill="#AA3930" cx="643.071" cy="443.254" r="2.097"/>
			<circle fill="#AA3930" cx="557.834" cy="430.497" r="2.097"/>
			<circle fill="#AA3930" cx="582.104" cy="430.497" r="2.097"/>
			<circle fill="#AA3930" cx="606.371" cy="430.497" r="2.097"/>
			<circle fill="#AA3930" cx="630.639" cy="430.497" r="2.097"/>
			<circle fill="#AA3930" cx="521.733" cy="467.042" r="2.097"/>
			<circle fill="#AA3930" cx="546" cy="467.042" r="2.097"/>
			<circle fill="#AA3930" cx="570.267" cy="467.042" r="2.097"/>
			<circle fill="#AA3930" cx="594.537" cy="467.042" r="2.097"/>
			<circle fill="#AA3930" cx="618.804" cy="467.042" r="2.097"/>
			<circle fill="#AA3930" cx="643.071" cy="467.042" r="2.097"/>
			<circle fill="#AA3930" cx="667.341" cy="467.042" r="2.097"/>
			<circle fill="#AA3930" cx="533.567" cy="454.286" r="2.097"/>
			<circle fill="#AA3930" cx="557.834" cy="454.286" r="2.097"/>
			<circle fill="#AA3930" cx="582.104" cy="454.286" r="2.097"/>
			<circle fill="#AA3930" cx="606.371" cy="454.286" r="2.097"/>
			<circle fill="#AA3930" cx="630.639" cy="454.286" r="2.097"/>
			<circle fill="#AA3930" cx="654.908" cy="454.286" r="2.097"/>
			<circle fill="#AA3930" cx="521.733" cy="490.831" r="2.097"/>
			<circle fill="#AA3930" cx="546" cy="490.831" r="2.097"/>
			<circle fill="#AA3930" cx="570.267" cy="490.831" r="2.097"/>
			<circle fill="#AA3930" cx="594.537" cy="490.831" r="2.097"/>
			<circle fill="#AA3930" cx="618.804" cy="490.831" r="2.097"/>
			<circle fill="#AA3930" cx="667.341" cy="490.831" r="2.097"/>
			<circle fill="#AA3930" cx="691.608" cy="490.831" r="2.097"/>
			<circle fill="#AA3930" cx="533.567" cy="478.074" r="2.097"/>
			<circle fill="#AA3930" cx="557.834" cy="478.074" r="2.097"/>
			<circle fill="#AA3930" cx="582.104" cy="478.074" r="2.097"/>
			<circle fill="#AA3930" cx="606.371" cy="478.074" r="2.097"/>
			<circle fill="#AA3930" cx="630.639" cy="478.074" r="2.097"/>
			<circle fill="#AA3930" cx="654.908" cy="478.074" r="2.097"/>
			<circle fill="#AA3930" cx="679.175" cy="478.074" r="2.097"/>
			<circle fill="#AA3930" cx="546" cy="514.618" r="2.097"/>
			<circle fill="#AA3930" cx="570.267" cy="514.618" r="2.097"/>
			<circle fill="#AA3930" cx="594.537" cy="514.618" r="2.097"/>
			<circle fill="#AA3930" cx="618.804" cy="514.618" r="2.097"/>
			<circle fill="#AA3930" cx="691.608" cy="514.618" r="2.097"/>
			<circle fill="#AA3930" cx="533.567" cy="501.862" r="2.096"/>
			<circle fill="#AA3930" cx="557.834" cy="501.862" r="2.096"/>
			<circle fill="#AA3930" cx="582.104" cy="501.862" r="2.096"/>
			<circle fill="#AA3930" cx="606.371" cy="501.862" r="2.096"/>
			<circle fill="#AA3930" cx="630.639" cy="501.862" r="2.096"/>
			<circle fill="#AA3930" cx="679.175" cy="501.862" r="2.096"/>
			<circle fill="#AA3930" cx="703.443" cy="501.862" r="2.096"/>
			<circle fill="#AA3930" cx="546" cy="538.408" r="2.097"/>
			<circle fill="#AA3930" cx="570.267" cy="538.408" r="2.097"/>
			<circle fill="#AA3930" cx="594.537" cy="538.408" r="2.097"/>
			<circle fill="#AA3930" cx="618.804" cy="538.408" r="2.097"/>
			<circle fill="#AA3930" cx="643.071" cy="538.408" r="2.097"/>
			<circle fill="#AA3930" cx="691.608" cy="538.408" r="2.097"/>
			<circle fill="#AA3930" cx="715.875" cy="538.408" r="2.097"/>
			<circle fill="#AA3930" cx="533.567" cy="525.651" r="2.097"/>
			<circle fill="#AA3930" cx="557.834" cy="525.651" r="2.097"/>
			<circle fill="#AA3930" cx="582.104" cy="525.651" r="2.097"/>
			<circle fill="#AA3930" cx="606.371" cy="525.651" r="2.097"/>
			<circle fill="#AA3930" cx="630.639" cy="525.651" r="2.097"/>
			<circle fill="#AA3930" cx="703.443" cy="525.651" r="2.097"/>
			<circle fill="#AA3930" cx="546" cy="562.195" r="2.097"/>
			<circle fill="#AA3930" cx="570.267" cy="562.195" r="2.097"/>
			<circle fill="#AA3930" cx="594.537" cy="562.195" r="2.097"/>
			<circle fill="#AA3930" cx="618.804" cy="562.195" r="2.097"/>
			<circle fill="#AA3930" cx="643.071" cy="562.195" r="2.097"/>
			<circle fill="#AA3930" cx="691.608" cy="562.195" r="2.097"/>
			<circle fill="#AA3930" cx="715.875" cy="562.195" r="2.097"/>
			<circle fill="#AA3930" cx="533.567" cy="549.439" r="2.098"/>
			<circle fill="#AA3930" cx="557.834" cy="549.439" r="2.098"/>
			<circle fill="#AA3930" cx="582.104" cy="549.439" r="2.098"/>
			<circle fill="#AA3930" cx="606.371" cy="549.439" r="2.098"/>
			<circle fill="#AA3930" cx="630.639" cy="549.439" r="2.098"/>
			<circle fill="#AA3930" cx="703.443" cy="549.439" r="2.098"/>
			<circle fill="#AA3930" cx="521.733" cy="585.982" r="2.097"/>
			<circle fill="#AA3930" cx="546" cy="585.982" r="2.097"/>
			<circle fill="#AA3930" cx="570.267" cy="585.982" r="2.097"/>
			<circle fill="#AA3930" cx="594.537" cy="585.982" r="2.097"/>
			<circle fill="#AA3930" cx="618.804" cy="585.982" r="2.097"/>
			<circle fill="#AA3930" cx="643.071" cy="585.982" r="2.097"/>
			<circle fill="#AA3930" cx="691.608" cy="585.982" r="2.097"/>
			<circle fill="#AA3930" cx="715.875" cy="585.982" r="2.097"/>
			<circle fill="#AA3930" cx="533.567" cy="573.225" r="2.097"/>
			<circle fill="#AA3930" cx="557.834" cy="573.225" r="2.097"/>
			<circle fill="#AA3930" cx="582.104" cy="573.225" r="2.097"/>
			<circle fill="#AA3930" cx="606.371" cy="573.225" r="2.097"/>
			<circle fill="#AA3930" cx="630.639" cy="573.225" r="2.097"/>
			<circle fill="#AA3930" cx="654.908" cy="573.225" r="2.097"/>
			<circle fill="#AA3930" cx="703.443" cy="573.225" r="2.097"/>
			<circle fill="#AA3930" cx="691.608" cy="609.772" r="2.097"/>
			<circle fill="#AA3930" cx="715.875" cy="609.772" r="2.097"/>
			<circle fill="#AA3930" cx="533.567" cy="597.015" r="2.097"/>
			<circle fill="#AA3930" cx="557.834" cy="597.015" r="2.097"/>
			<circle fill="#AA3930" cx="582.104" cy="597.015" r="2.097"/>
			<circle fill="#AA3930" cx="606.371" cy="597.015" r="2.097"/>
			<circle fill="#AA3930" cx="630.639" cy="597.015" r="2.097"/>
			<circle fill="#AA3930" cx="654.908" cy="597.015" r="2.097"/>
			<circle fill="#AA3930" cx="703.443" cy="597.015" r="2.097"/>
			<circle fill="#AA3930" cx="691.608" cy="633.561" r="2.097"/>
			<circle fill="#AA3930" cx="715.875" cy="633.561" r="2.097"/>
			<circle fill="#AA3930" cx="703.443" cy="620.804" r="2.097"/>
			<circle fill="#AA3930" cx="703.443" cy="644.593" r="2.095"/>
		</g>
	</g>
	<path fill-rule="evenodd" clip-rule="evenodd" fill="#B7554E" d="M516.702,618.942c0,0-27.815,17.636-33.966,70.576
		c-18.367,91.847-31.537,100.827-31.537,100.827s33.124,4.103,66.452,10.704c33.531,6.641,54.917,1.656,71.129-4.955
		c16.113-6.572,18.946-13.1,31.559-9.841c12.65,3.268,29.773,9.843,51.82,6.553c21.976-3.285,30.525-0.823,31.894-3.285
		c1.365-2.453-3.77-126.499-44.919-170.58C581.839,629.584,516.702,618.942,516.702,618.942z"/>
	<path fill-rule="evenodd" clip-rule="evenodd" fill="#F3CBA9" d="M718.723,674.909c-4.347-4.798-5.002-5.815-9.356-10.614
		c-10.11,13.578-20.218,27.164-30.338,40.754c-1.715,3.15,3.368,11.144,6.043,11.447c4.534-4.43,6.984-7.622,10.288-12.896
		c-1.192,14.788-3.983,25.197-5.17,39.985c-0.96,4.555,8.509,5.714,10.948,4.704c0.513-3.625,3.76-10.534,4.273-14.159
		c1.164,4.77,1.677,11.811,1.79,17.399c2.14,2.549,7.859,1.391,10.456-0.201c0.158-2.925,0.336-8.143,0.485-11.068
		c3.321,11.742,9.101,8.356,10.917,5.754C730.458,725.438,719.856,697.247,718.723,674.909z"/>
	<polygon fill-rule="evenodd" clip-rule="evenodd" fill="#E8D8CE" points="719.986,661.242 719.534,681.787 694.609,684.145 
		692.959,657.645 	"/>
	<path fill-rule="evenodd" clip-rule="evenodd" fill="#D4B396" d="M552.662,403.924c0,0,11.255,16.724,29.274,24.914
		c26.209-9.008,43.897-28.588,43.897-28.588s-5.286-30.675-4.467-38.866c0.818-8.19-89.714-0.553-88.902-0.448
		C564.239,365.07,552.662,403.924,552.662,403.924z"/>
	<path fill-rule="evenodd" clip-rule="evenodd" fill="#F3CBA9" d="M556.721,374.522c-26.37-8.581-53.127-21.105-72.083-39.436
		c-45.124-43.632-16.297-73.426-22.053-113.423c-15.233-77.378,18.629-97.577,81.287-104.23
		c40.546-5.837,71.943-31.566,109.362-12.92c22.333,16.166,36.747,59.56,45.519,93.147c9.493,54.854,22.087,65.725-7.797,107.693
		C665.657,340.871,604.184,389.948,556.721,374.522z"/>
	<path fill-rule="evenodd" clip-rule="evenodd" fill="#BC8E61" d="M577.438,288.241c1.253-0.857,2.975-0.533,3.829,0.722
		c0.854,1.254,0.532,2.966-0.724,3.824c-4.442,3.025-9.299,3.905-13.715,3.594c-5.993-0.423-11.293-3.154-13.627-5.683
		c-5.974-6.475-3.07-17.44-1.246-24.281c0.482-1.837,0.88-3.328,0.913-4c0.854-15.368,0.885-27.068-0.397-37.314
		c-1.258-10.116-3.82-18.842-8.126-28.365c-0.62-1.385-0.005-3.015,1.381-3.64c1.386-0.623,3.02-0.007,3.647,1.38
		c4.545,10.049,7.237,19.264,8.568,29.957c1.32,10.561,1.291,22.557,0.423,38.279c-0.066,1.252-0.53,2.978-1.09,5.106
		c-1.516,5.718-3.945,14.89-0.024,19.15c1.589,1.72,5.43,3.597,9.978,3.917C570.539,291.119,574.162,290.475,577.438,288.241z"/>
	<path fill-rule="evenodd" clip-rule="evenodd" fill="#F3CBA9" d="M695.491,219.627c10.888-13.061,36.974-32.98,42.43-6.782
		c2.23,10.699-0.877,64.523-18.024,65.489c-23.617,1.334-29-25.94-29-37.231c0-3.88,2.696-8.793,4.593-12.434
		C697.357,225.099,693.247,223.478,695.491,219.627z"/>
	<path fill-rule="evenodd" clip-rule="evenodd" fill="#C48E59" d="M722.412,230.474c0.984,4.706-0.395,28.385-7.934,28.812
		C687.628,252.676,717.978,209.218,722.412,230.474z"/>
	<path fill-rule="evenodd" clip-rule="evenodd" fill="#F49D74" d="M533.581,312.607c10.368,1.102,19.431-5.066,22.307-6.104
		c2.784-0.604,8.512,8.032,15.874-2.233c1,0.089,6.161,4.074,12.892,5.288c8.855,1.6,29.224-2.106,32.164-3.757
		c-2.488,2.729-4.236,6.665-10.971,9.318c-9.557,3.763-24.177,4.011-27.692,7.88c-8.788-0.785-17.574-1.573-26.367-2.358
		C550.853,319.371,527.054,311.914,533.581,312.607z"/>
	<g>
		<defs>
			<path id="SVGID_1_" d="M537.526,312.588c3.209,1.83,5.035,11.457,6.187,15.948c12.993,6.869,30.016,6.547,48.958-0.862
				c14.665-5.743,24.118-16.65,20.85-19.127c-1.875,4.46-9.056,6.193-18.132,7.939C573.909,320.627,540.412,314.406,537.526,312.588
				z"/>
		</defs>
		<use xlink:href="#SVGID_1_"  overflow="visible" fill-rule="evenodd" clip-rule="evenodd" fill="#3D3237"/>
		<clipPath id="SVGID_2_">
			<use xlink:href="#SVGID_1_"  overflow="visible"/>
		</clipPath>
		<g clip-path="url(#SVGID_2_)">
			<path fill-rule="evenodd" clip-rule="evenodd" fill="#E5E2E2" d="M533.257,303.038c4.129,1.831,6.473,11.459,7.951,15.953
				c16.714,6.868,38.613,6.545,62.975-0.867c18.866-5.74,31.012-16.646,26.817-19.127c-2.419,4.463-11.659,6.195-23.328,7.944
				C580.047,311.081,536.968,304.859,533.257,303.038z"/>
		</g>
	</g>
	<path fill-rule="evenodd" clip-rule="evenodd" fill="#F49D74" d="M616.115,305.912c-5.745,5.728-13.381,11.898-21.105,16.262
		c-15.973,9.032-32.982,9.418-45.202,2.745c-3.753-2.048-8.497-8.22-10.645-12.283c-0.404,1.594-2.793-1.243-2.904,1.433
		c-0.393,15.718,15.843,31.386,44.996,27.763C602.902,340.598,615.032,314.063,616.115,305.912z"/>
	<path fill-rule="evenodd" clip-rule="evenodd" fill="#F3CBA9" d="M474.438,216.861c-5.589-24.913,50.85-38.876,62.195-12.297
		C527.262,202.852,491.354,204.154,474.438,216.861z"/>
	<g>
		<path fill-rule="evenodd" clip-rule="evenodd" fill="#1A1414" d="M511.081,243.629c4.829,0,8.776-3.942,8.776-8.774
			c0-4.832-3.947-8.774-8.776-8.774c-4.834,0-8.774,3.942-8.774,8.774C502.307,239.686,506.247,243.629,511.081,243.629z"/>
		<circle fill-rule="evenodd" clip-rule="evenodd" fill="#FFFFFF" cx="513.84" cy="230.22" r="1.643"/>
	</g>
	<g>
		<path fill-rule="evenodd" clip-rule="evenodd" fill="#1A1414" d="M622.328,242.064c4.827,0,8.774-3.942,8.774-8.773
			c0-4.833-3.947-8.775-8.774-8.775c-4.837,0-8.776,3.942-8.776,8.775C613.552,238.122,617.491,242.064,622.328,242.064z"/>
		<circle fill-rule="evenodd" clip-rule="evenodd" fill="#FFFFFF" cx="625.086" cy="228.654" r="1.644"/>
	</g>
	<path fill-rule="evenodd" clip-rule="evenodd" fill="#F3CBA9" d="M547.578,267.561c0.617,9.947-22.113,10.288-38.152,13.334
		c-10.801,2.051-16.259,7.328-29.217-0.25"/>
	<path fill-rule="evenodd" clip-rule="evenodd" fill="#F3CBA9" d="M467.581,218.109c-6.286-28.012,57.172-43.711,69.926-13.828
		C526.976,202.358,486.601,203.821,467.581,218.109z"/>
	<path fill-rule="evenodd" clip-rule="evenodd" fill="#454444" d="M594.274,192.721c25.54-7.055,45.545-7.002,66.546-2.555
		c3.354,0.711,6.154-0.906,4.874-1.59c-21.592-13.924-45.254-13.858-71.747-7.844C585.257,182.371,588.227,194.373,594.274,192.721z
		"/>
	<path fill-rule="evenodd" clip-rule="evenodd" fill="#3C3C3B" d="M542.838,111.851c1.589,39.502,145.776,9.626,139.299,93.131
		c-3.292,42.345,89.118-35.495,34.815-104.003c-26.356-33.244-76.43-63.449-136.557-45.744
		C556.735,62.198,543.38,92.458,542.838,111.851z"/>
	<path fill-rule="evenodd" clip-rule="evenodd" d="M542.838,111.851c1.589,39.502,145.776,9.626,139.299,93.131
		c-0.669,8.568,2.587,12.213,7.748,12.01c2.843-24.545-5.964-76.834-26.204-80.305c-38.003-6.518-104.183-44.414-64.108-85.576
		c-6.262,0.851-12.66,2.203-19.178,4.123C556.735,62.198,543.38,92.458,542.838,111.851z"/>
	<path fill-rule="evenodd" clip-rule="evenodd" d="M563.721,111.851c-1.107,39.502-93.011,9.932-101.423,93.131
		c-1.927,19.148-3.547,23.386-11.603,14.454c-12.828-14.227-30.785-58.135-7.655-100.212c18.255-33.239,43.118-74.919,96.508-55.479
		C561.68,71.802,563.34,92.458,563.721,111.851z"/>
	<path fill-rule="evenodd" clip-rule="evenodd" fill="#3C3C3B" d="M541.62,64.56c25.114,37.518-34.238,69.165-72.513,88.548
		c-15.082,7.632-23.745,35.744-24.778,57.337c2.126,3.669,4.307,6.712,6.367,8.991c8.055,8.933,9.675,4.695,11.603-14.454
		c8.412-83.199,100.316-53.63,101.423-93.131C563.345,93.081,561.782,73.128,541.62,64.56z"/>
	<path fill-rule="evenodd" clip-rule="evenodd" fill="#454444" d="M529.294,197.652c-25.812-5.958-45.803-5.048-66.594,0.29
		c-3.318,0.854-6.182-0.638-4.933-1.381c20.973-14.831,44.613-15.78,71.333-10.904C537.862,186.928,535.4,199.04,529.294,197.652z"
		/>
	<polygon fill-rule="evenodd" clip-rule="evenodd" points="668.713,218.552 669.285,207.748 706.264,210.532 694.86,216.205 	"/>
	<path fill-rule="evenodd" clip-rule="evenodd" fill="#3C3C3B" d="M691.395,202.559c0,3.194-14.828,11.098-0.497,38.545
		c14.337,27.449,2.096,60.446-5.357,88.121c-7.452,27.675-22.884,32.466-22.884,32.466s32.573-13.015,42.043-33.53
		c9.58-20.756,11.177-45.238,11.177-63.332c0-18.096-0.369-71.228,6.385-44.173c1.594,6.387,2.661,10.111,1.596,54.285
		c-1.246,51.785,7.45,22.353,6.92,20.224c-0.532-2.129,25.015-39.383,20.223-67.591c-4.789-28.207-32.996-36.191-32.996-36.191
		L691.395,202.559z"/>
	<path fill-rule="evenodd" clip-rule="evenodd" fill="#F4E6DA" stroke="#AD8779" stroke-width="0.9431" stroke-miterlimit="10" d="
		M581.314,428.839c0.485,0.285-17.751,22.579-17.283,22.112c0.466-0.467-11.21-47.804-11.21-47.804S573.06,424.013,581.314,428.839z
		"/>
	<path fill-rule="evenodd" clip-rule="evenodd" fill="none" stroke="#AD8779" stroke-width="0.9431" stroke-miterlimit="10" d="
		M582.104,428.4c23.832-6.201,43.589-28.677,43.589-28.677s0,0,2.025,1.245c-10.43,34.724-31.767,50.604-34.259,49.047
		c-4.668-4.826-11.522-21.176-11.522-21.176s-3.342,18.549-5.376,34.812c-2.034,16.264,5.539,24.922,3.446,38.211
		c-2.093,13.29-2.767,29.552-3.446,49.884c-0.679,20.332,5.421,49.471,5.421,49.471"/>
	<g>
		<path fill="#5A2932" d="M522.277,613.01c0,0-22.347,11.719-31.286,78.766c-8.94,67.052-8.382,69.001-8.94,67.052
			c-0.558-1.951,15.64-72.913,22.905-96.996c7.265-24.083,22.907-48.173,22.907-48.173L522.277,613.01z"/>
		<path fill="#5A2932" d="M494.899,775.755c0-0.248,0-1.152,0.014-2.606c0.142-13.707,1.592-76.552,16.746-104.807
			c16.761-31.246-7.263,34.503-8.381,59.891c-1.116,25.39,1.119,47.522,1.119,47.522"/>
		<path fill="#5A2932" d="M540.151,614.961c0,0-25.138,74.209-27.373,114.572c-2.237,40.359-0.558,33.853-0.558,33.853
			l33.519-149.726L540.151,614.961z"/>
		<path fill-rule="evenodd" clip-rule="evenodd" fill="#5A2932" d="M553.003,615.614c0,0-11.733,50.774-13.97,97.644
			c-2.233,46.872,2.795,68.351,2.237,63.796c-0.558-4.558,12.293-151.024,15.084-158.185c2.793-7.161-2.791,83.976-3.351,130.848
			c-0.56,46.867,12.849-127.594,11.731-129.548c-1.116-1.951,2.795-3.252,2.795-3.252L553.003,615.614z"/>
		<path fill-rule="evenodd" clip-rule="evenodd" fill="#5A2932" d="M653.004,611.057c0,0,14.526,26.043,23.465,82.023
			c8.94,55.984,4.47,69.006,4.47,69.006s-13.967-99.597-23.465-120.433c-9.498-20.833-11.172-24.088-11.172-24.088
			s10.614,26.691,13.407,87.233c2.793,60.539,2.235,64.444,2.235,64.444s-8.379-79.417-13.968-106.756
			c-5.586-27.342-9.495-47.525-9.495-47.525L653.004,611.057z"/>
		<path fill-rule="evenodd" clip-rule="evenodd" fill="#5A2932" d="M642.39,767.939c0.558-4.553-8.382-108.057-12.291-124.335
			c-3.909-16.271,3.909,98.951,3.909,107.413c0,8.464-5.026,3.909-13.407-41.662c-8.379-45.569-9.5-85.932-10.058-87.883
			c-0.558-1.951-3.907,81.375,1.679,107.413c5.586,26.039,12.289,42.31,12.289,42.31l10.058-10.413L642.39,767.939z"/>
		<path fill-rule="evenodd" clip-rule="evenodd" fill="#5A2932" d="M578.14,623.424c0-1.301-5.586,120.435-10.612,143.215
			c-5.03,22.784,15.082-48.17,17.875-88.531c2.795-40.356,6.147-49.473,6.147-49.473s-1.114,134.753,0.56,138.005
			c1.675,3.254,7.265-142.56,7.823-146.469c0.556-3.907-9.498-0.648-9.498-0.648s-7.263,45.564-9.5,61.84
			c-2.235,16.273,0-65.099,0-65.099L578.14,623.424z"/>
	</g>
	<path fill-rule="evenodd" clip-rule="evenodd" d="M451.199,790.345c0,0,28.169,4.924,52.293,9.049
		c24.215,4.141,30.445,14.973,53.482,7.461c22.881-7.461,46.096-19.783,63.682-16.51c17.64,3.28,33.834,8.223,46.86,5.75
		c13.003-2.469,42.076-1.646,42.076-1.646l-6.279-32.415c0,0-37.216,3.195-55.629-1.596c-18.331-4.77-59.818-4.77-78.137,2.393
		c-18.44,7.216-84.859,1.599-102.875-4.782C456.111,770.046,451.199,790.345,451.199,790.345z"/>
	<path fill-rule="evenodd" clip-rule="evenodd" d="M517.133,600.592l-3.044,23.603c0,0,50.928,13.925,142.371,0
		c2.029-12.487-0.558-21.547-0.558-21.547S581.328,614.557,517.133,600.592z"/>
	<path d="M678.042,196.713c-24.84-1.071-64.531,10.946-80.802,17.894c-15.552,6.639-28.489,7.174-29.607,7.211
		c-1.121-0.037-14.058-0.572-29.607-7.211c-16.273-6.947-55.965-18.965-80.805-17.894c-10.848,0.529-7.426,6.947-3.997,15.493
		c3.429,8.541,13.705,59.297,59.676,63.038c27.413,0.532,36.549-16.828,41.402-24.575c4.621-7.376,8.98-13.768,13.332-14.366
		c4.352,0.598,8.71,6.99,13.329,14.366c4.855,7.746,13.991,25.107,41.402,24.575c45.973-3.74,56.254-54.497,59.678-63.038
		C685.469,203.66,688.891,197.241,678.042,196.713z M536.599,260.283c-15.704,13.625-41.974,1.873-41.974,1.873
		c-17.991-11.223-24.556-28.849-27.982-39.537c-3.427-10.685-3.711-15.223,5.997-13.89c9.711,1.336,42.83,5.076,55.679,11.487
		C541.168,226.627,549.16,249.598,536.599,260.283z M668.62,222.619c-3.427,10.687-9.992,28.314-27.978,39.537
		c0,0-26.273,11.752-41.979-1.873c-12.56-10.685-4.569-33.656,8.282-40.067c12.849-6.41,45.969-10.151,55.677-11.487
		C672.331,207.396,672.047,211.934,668.62,222.619z"/>
</g>
</svg>
